STARTFONT 2.1
COMMENT $Xorg: $
COMMENT ISO10646-1 extension by Markus Kuhn <mkuhn@acm.org>, 2001-03-20
COMMENT  (c) Copyright Bigelow & Holmes 1986, 1985. Lucida is a registered
COMMENT  trademark of Bigelow & Holmes. See LEGAL NOTICE file for terms 
COMMENT  of the license. 
FONT -B&H-Lucida-Medium-R-Normal-Sans-14-100-100-100-P-80-ISO10646-1
SIZE 10 100 100
FONTBOUNDINGBOX 22 21 -8 -6
STARTPROPERTIES 22
COMMENT Begin LogicalFontDescription
FONTNAME_REGISTRY ""
FOUNDRY "B&H"
FAMILY_NAME "Lucida"
WEIGHT_NAME "Medium"
SLANT "R"
SETWIDTH_NAME "Normal"
ADD_STYLE_NAME "Sans"
PIXEL_SIZE 14
POINT_SIZE 100
RESOLUTION_X 100
RESOLUTION_Y 100
SPACING "P"
AVERAGE_WIDTH 80
CHARSET_REGISTRY "ISO10646"
CHARSET_ENCODING "1"
COMMENT END LogicalFontDescription
FONT_ASCENT 13
FONT_DESCENT 3
DEFAULT_CHAR 0
COPYRIGHT "Copyright Bigelow & Holmes 1986, 1985."
FACE_NAME "Lucida Sans"
X_HEIGHT 7
CAP_HEIGHT 10
ENDPROPERTIES
CHARS 756
STARTCHAR char0
ENCODING 0
SWIDTH 735 0
DWIDTH 10 0
BBX 7 9 1 0
BITMAP
AA
00
82
00
82
00
82
00
AA
ENDCHAR
STARTCHAR space
ENCODING 32
SWIDTH 316 0
DWIDTH 4 0
BBX 1 1 0 0
BITMAP
00
ENDCHAR
STARTCHAR exclam
ENCODING 33
SWIDTH 205 0
DWIDTH 4 0
BBX 1 10 2 0
BITMAP
80
80
80
80
80
80
80
00
00
80
ENDCHAR
STARTCHAR quotedbl
ENCODING 34
SWIDTH 373 0
DWIDTH 5 0
BBX 3 2 1 8
BITMAP
A0
A0
ENDCHAR
STARTCHAR numbersign
ENCODING 35
SWIDTH 633 0
DWIDTH 9 0
BBX 9 10 0 0
BITMAP
0900
1A00
1200
7F80
1200
2400
FF00
2400
2C00
4800
ENDCHAR
STARTCHAR dollar
ENCODING 36
SWIDTH 633 0
DWIDTH 9 0
BBX 5 13 2 -2
BITMAP
20
78
A0
A0
A0
60
30
28
28
A8
F8
30
20
ENDCHAR
STARTCHAR percent
ENCODING 37
SWIDTH 669 0
DWIDTH 9 0
BBX 11 10 0 0
BITMAP
7060
88C0
8980
8B00
7600
0DC0
1A20
3220
6220
C1C0
ENDCHAR
STARTCHAR ampersand
ENCODING 38
SWIDTH 697 0
DWIDTH 10 0
BBX 9 10 0 0
BITMAP
1C00
2200
2200
3C00
7800
8C80
8480
8380
C300
3D80
ENDCHAR
STARTCHAR quotesingle
ENCODING 39
SWIDTH 229 0
DWIDTH 3 0
BBX 1 3 1 7
BITMAP
80
80
80
ENDCHAR
STARTCHAR parenleft
ENCODING 40
SWIDTH 325 0
DWIDTH 5 0
BBX 3 13 1 -3
BITMAP
20
40
40
80
80
80
80
80
80
80
40
40
20
ENDCHAR
STARTCHAR parenright
ENCODING 41
SWIDTH 325 0
DWIDTH 5 0
BBX 3 13 1 -3
BITMAP
80
80
40
20
20
20
20
20
20
20
40
80
80
ENDCHAR
STARTCHAR asterisk
ENCODING 42
SWIDTH 482 0
DWIDTH 7 0
BBX 5 4 1 6
BITMAP
20
F8
50
50
ENDCHAR
STARTCHAR plus
ENCODING 43
SWIDTH 633 0
DWIDTH 9 0
BBX 9 8 0 0
BITMAP
0800
0800
0800
0800
FF80
0800
0800
0800
ENDCHAR
STARTCHAR comma
ENCODING 44
SWIDTH 316 0
DWIDTH 4 0
BBX 2 5 1 -3
BITMAP
C0
C0
40
40
80
ENDCHAR
STARTCHAR hyphen
ENCODING 45
SWIDTH 325 0
DWIDTH 5 0
BBX 3 1 1 4
BITMAP
E0
ENDCHAR
STARTCHAR period
ENCODING 46
SWIDTH 316 0
DWIDTH 4 0
BBX 2 1 1 0
BITMAP
C0
ENDCHAR
STARTCHAR slash
ENCODING 47
SWIDTH 494 0
DWIDTH 7 0
BBX 7 13 0 -3
BITMAP
02
04
04
08
08
18
10
30
20
20
40
40
80
ENDCHAR
STARTCHAR zero
ENCODING 48
SWIDTH 633 0
DWIDTH 9 0
BBX 7 10 1 0
BITMAP
38
44
82
82
82
82
82
82
44
38
ENDCHAR
STARTCHAR one
ENCODING 49
SWIDTH 633 0
DWIDTH 9 0
BBX 3 10 2 0
BITMAP
E0
20
20
20
20
20
20
20
20
20
ENDCHAR
STARTCHAR two
ENCODING 50
SWIDTH 633 0
DWIDTH 9 0
BBX 6 10 1 0
BITMAP
78
8C
04
04
0C
18
20
40
C0
FC
ENDCHAR
STARTCHAR three
ENCODING 51
SWIDTH 633 0
DWIDTH 9 0
BBX 5 10 2 0
BITMAP
F0
88
08
08
70
08
08
08
98
F0
ENDCHAR
STARTCHAR four
ENCODING 52
SWIDTH 633 0
DWIDTH 9 0
BBX 7 10 1 0
BITMAP
0C
0C
14
24
44
C4
FE
04
04
04
ENDCHAR
STARTCHAR five
ENCODING 53
SWIDTH 633 0
DWIDTH 9 0
BBX 5 10 2 0
BITMAP
F8
80
80
80
F0
18
08
08
18
F0
ENDCHAR
STARTCHAR six
ENCODING 54
SWIDTH 633 0
DWIDTH 9 0
BBX 7 10 1 0
BITMAP
3C
44
C0
80
BC
C6
82
82
44
38
ENDCHAR
STARTCHAR seven
ENCODING 55
SWIDTH 633 0
DWIDTH 9 0
BBX 6 10 2 0
BITMAP
FC
0C
08
18
10
30
20
20
40
40
ENDCHAR
STARTCHAR eight
ENCODING 56
SWIDTH 633 0
DWIDTH 9 0
BBX 7 10 1 0
BITMAP
7C
82
82
C6
38
4C
82
82
C6
7C
ENDCHAR
STARTCHAR nine
ENCODING 57
SWIDTH 633 0
DWIDTH 9 0
BBX 7 10 1 0
BITMAP
78
C4
82
82
C6
7A
02
02
04
78
ENDCHAR
STARTCHAR colon
ENCODING 58
SWIDTH 316 0
DWIDTH 4 0
BBX 1 7 2 0
BITMAP
80
00
00
00
00
00
80
ENDCHAR
STARTCHAR semicolon
ENCODING 59
SWIDTH 316 0
DWIDTH 4 0
BBX 1 10 2 -3
BITMAP
80
00
00
00
00
00
80
80
80
80
ENDCHAR
STARTCHAR less
ENCODING 60
SWIDTH 633 0
DWIDTH 9 0
BBX 8 8 0 0
BITMAP
01
06
18
E0
60
18
06
01
ENDCHAR
STARTCHAR equal
ENCODING 61
SWIDTH 633 0
DWIDTH 9 0
BBX 8 4 0 2
BITMAP
FF
00
00
FF
ENDCHAR
STARTCHAR greater
ENCODING 62
SWIDTH 633 0
DWIDTH 9 0
BBX 8 8 0 0
BITMAP
80
60
18
06
07
18
60
80
ENDCHAR
STARTCHAR question
ENCODING 63
SWIDTH 422 0
DWIDTH 6 0
BBX 5 10 0 0
BITMAP
F0
88
08
18
30
60
40
00
00
40
ENDCHAR
STARTCHAR at
ENCODING 64
SWIDTH 858 0
DWIDTH 12 0
BBX 11 10 2 0
BITMAP
0F80
30C0
6720
4920
9220
9220
9640
9B80
6000
3E00
ENDCHAR
STARTCHAR A
ENCODING 65
SWIDTH 690 0
DWIDTH 10 0
BBX 9 10 0 0
BITMAP
0800
1400
1400
1400
2200
2200
7F00
4100
4100
8080
ENDCHAR
STARTCHAR B
ENCODING 66
SWIDTH 575 0
DWIDTH 8 0
BBX 6 10 1 0
BITMAP
F8
84
84
8C
F8
88
84
84
84
F8
ENDCHAR
STARTCHAR C
ENCODING 67
SWIDTH 692 0
DWIDTH 10 0
BBX 8 10 1 0
BITMAP
1F
61
40
80
80
80
80
40
61
1E
ENDCHAR
STARTCHAR D
ENCODING 68
SWIDTH 749 0
DWIDTH 10 0
BBX 8 10 2 0
BITMAP
FC
86
83
81
81
81
81
81
82
FC
ENDCHAR
STARTCHAR E
ENCODING 69
SWIDTH 542 0
DWIDTH 8 0
BBX 6 10 1 0
BITMAP
FC
80
80
80
F8
80
80
80
80
FC
ENDCHAR
STARTCHAR F
ENCODING 70
SWIDTH 536 0
DWIDTH 8 0
BBX 5 10 2 0
BITMAP
F8
80
80
80
F0
80
80
80
80
80
ENDCHAR
STARTCHAR G
ENCODING 71
SWIDTH 723 0
DWIDTH 10 0
BBX 8 10 1 0
BITMAP
1F
61
40
80
80
81
81
C1
61
3F
ENDCHAR
STARTCHAR H
ENCODING 72
SWIDTH 735 0
DWIDTH 10 0
BBX 8 10 1 0
BITMAP
81
81
81
81
FF
81
81
81
81
81
ENDCHAR
STARTCHAR I
ENCODING 73
SWIDTH 288 0
DWIDTH 4 0
BBX 1 10 2 0
BITMAP
80
80
80
80
80
80
80
80
80
80
ENDCHAR
STARTCHAR J
ENCODING 74
SWIDTH 311 0
DWIDTH 4 0
BBX 4 13 0 -3
BITMAP
10
10
10
10
10
10
10
10
10
10
10
10
E0
ENDCHAR
STARTCHAR K
ENCODING 75
SWIDTH 653 0
DWIDTH 9 0
BBX 8 10 1 0
BITMAP
86
8C
98
B0
A0
E0
90
88
84
83
ENDCHAR
STARTCHAR L
ENCODING 76
SWIDTH 533 0
DWIDTH 7 0
BBX 6 10 1 0
BITMAP
80
80
80
80
80
80
80
80
80
FC
ENDCHAR
STARTCHAR M
ENCODING 77
SWIDTH 861 0
DWIDTH 12 0
BBX 9 10 2 0
BITMAP
C180
C180
E380
A280
A280
9480
9480
9480
8880
8080
ENDCHAR
STARTCHAR N
ENCODING 78
SWIDTH 741 0
DWIDTH 10 0
BBX 8 10 1 0
BITMAP
81
C1
A1
B1
91
89
8D
85
83
81
ENDCHAR
STARTCHAR O
ENCODING 79
SWIDTH 777 0
DWIDTH 11 0
BBX 9 10 1 0
BITMAP
3E00
6300
4100
8080
8080
8080
8080
4100
6300
3E00
ENDCHAR
STARTCHAR P
ENCODING 80
SWIDTH 553 0
DWIDTH 8 0
BBX 6 10 1 0
BITMAP
F8
84
84
84
88
F0
80
80
80
80
ENDCHAR
STARTCHAR Q
ENCODING 81
SWIDTH 777 0
DWIDTH 11 0
BBX 10 13 1 -3
BITMAP
3E00
6300
4100
8080
8080
8080
8080
4180
6300
3E00
0380
01C0
0080
ENDCHAR
STARTCHAR R
ENCODING 82
SWIDTH 633 0
DWIDTH 9 0
BBX 6 10 2 0
BITMAP
F8
84
84
84
88
F0
98
88
84
84
ENDCHAR
STARTCHAR S
ENCODING 83
SWIDTH 539 0
DWIDTH 8 0
BBX 6 10 1 0
BITMAP
78
88
80
C0
60
18
04
04
8C
F8
ENDCHAR
STARTCHAR T
ENCODING 84
SWIDTH 633 0
DWIDTH 9 0
BBX 9 10 0 0
BITMAP
FF80
0800
0800
0800
0800
0800
0800
0800
0800
0800
ENDCHAR
STARTCHAR U
ENCODING 85
SWIDTH 693 0
DWIDTH 10 0
BBX 7 10 1 0
BITMAP
82
82
82
82
82
82
82
82
C6
7C
ENDCHAR
STARTCHAR V
ENCODING 86
SWIDTH 654 0
DWIDTH 9 0
BBX 9 10 0 0
BITMAP
8080
4100
4100
2100
2200
2200
1400
1400
1C00
0800
ENDCHAR
STARTCHAR W
ENCODING 87
SWIDTH 855 0
DWIDTH 12 0
BBX 12 10 0 0
BITMAP
8610
4630
4620
4620
4920
2940
2940
2940
3080
1080
ENDCHAR
STARTCHAR X
ENCODING 88
SWIDTH 626 0
DWIDTH 9 0
BBX 8 10 0 0
BITMAP
C3
62
24
1C
18
18
3C
24
42
C3
ENDCHAR
STARTCHAR Y
ENCODING 89
SWIDTH 623 0
DWIDTH 9 0
BBX 8 10 0 0
BITMAP
C3
42
24
24
18
10
10
10
10
10
ENDCHAR
STARTCHAR Z
ENCODING 90
SWIDTH 605 0
DWIDTH 8 0
BBX 7 10 1 0
BITMAP
FE
04
04
08
10
10
20
40
40
FE
ENDCHAR
STARTCHAR bracketleft
ENCODING 91
SWIDTH 325 0
DWIDTH 5 0
BBX 3 13 1 -3
BITMAP
E0
80
80
80
80
80
80
80
80
80
80
80
E0
ENDCHAR
STARTCHAR backslash
ENCODING 92
SWIDTH 494 0
DWIDTH 7 0
BBX 7 13 0 -3
BITMAP
80
40
40
20
20
30
10
18
08
08
04
04
02
ENDCHAR
STARTCHAR bracketright
ENCODING 93
SWIDTH 325 0
DWIDTH 5 0
BBX 3 13 0 -3
BITMAP
E0
20
20
20
20
20
20
20
20
20
20
20
E0
ENDCHAR
STARTCHAR asciicircum
ENCODING 94
SWIDTH 633 0
DWIDTH 9 0
BBX 8 8 0 2
BITMAP
08
18
18
24
24
42
42
81
ENDCHAR
STARTCHAR underscore
ENCODING 95
SWIDTH 500 0
DWIDTH 7 0
BBX 6 1 1 -2
BITMAP
FC
ENDCHAR
STARTCHAR grave
ENCODING 96
SWIDTH 614 0
DWIDTH 9 0
BBX 3 1 2 9
BITMAP
E0
ENDCHAR
STARTCHAR a
ENCODING 97
SWIDTH 552 0
DWIDTH 8 0
BBX 7 7 1 0
BITMAP
7C
44
04
7C
84
84
7E
ENDCHAR
STARTCHAR b
ENCODING 98
SWIDTH 630 0
DWIDTH 9 0
BBX 7 10 1 0
BITMAP
80
80
80
BC
C6
82
82
82
C4
B8
ENDCHAR
STARTCHAR c
ENCODING 99
SWIDTH 518 0
DWIDTH 7 0
BBX 5 7 1 0
BITMAP
78
C0
80
80
80
C0
78
ENDCHAR
STARTCHAR d
ENCODING 100
SWIDTH 630 0
DWIDTH 9 0
BBX 7 10 1 0
BITMAP
02
02
02
3A
46
82
82
82
C6
7A
ENDCHAR
STARTCHAR e
ENCODING 101
SWIDTH 557 0
DWIDTH 8 0
BBX 6 7 1 0
BITMAP
78
44
84
FC
80
40
3C
ENDCHAR
STARTCHAR f
ENCODING 102
SWIDTH 367 0
DWIDTH 5 0
BBX 5 11 1 0
BITMAP
38
40
40
40
F0
40
40
40
40
40
40
ENDCHAR
STARTCHAR g
ENCODING 103
SWIDTH 623 0
DWIDTH 9 0
BBX 7 10 1 -3
BITMAP
3A
46
82
82
82
C6
7A
02
42
7C
ENDCHAR
STARTCHAR h
ENCODING 104
SWIDTH 620 0
DWIDTH 9 0
BBX 6 10 1 0
BITMAP
80
80
80
B8
C4
84
84
84
84
84
ENDCHAR
STARTCHAR i
ENCODING 105
SWIDTH 289 0
DWIDTH 4 0
BBX 1 10 2 0
BITMAP
80
00
00
80
80
80
80
80
80
80
ENDCHAR
STARTCHAR j
ENCODING 106
SWIDTH 304 0
DWIDTH 4 0
BBX 4 13 0 -3
BITMAP
10
00
00
10
10
10
10
10
10
10
10
10
E0
ENDCHAR
STARTCHAR k
ENCODING 107
SWIDTH 585 0
DWIDTH 8 0
BBX 6 10 2 0
BITMAP
80
80
80
88
90
A0
C0
A0
90
8C
ENDCHAR
STARTCHAR l
ENCODING 108
SWIDTH 289 0
DWIDTH 4 0
BBX 1 10 2 0
BITMAP
80
80
80
80
80
80
80
80
80
80
ENDCHAR
STARTCHAR m
ENCODING 109
SWIDTH 934 0
DWIDTH 13 0
BBX 11 7 1 0
BITMAP
B9C0
C620
8420
8420
8420
8420
8420
ENDCHAR
STARTCHAR n
ENCODING 110
SWIDTH 620 0
DWIDTH 9 0
BBX 6 7 1 0
BITMAP
B8
C4
84
84
84
84
84
ENDCHAR
STARTCHAR o
ENCODING 111
SWIDTH 614 0
DWIDTH 9 0
BBX 7 7 1 0
BITMAP
38
44
82
82
82
44
38
ENDCHAR
STARTCHAR p
ENCODING 112
SWIDTH 630 0
DWIDTH 9 0
BBX 7 10 1 -3
BITMAP
BC
C6
82
82
82
C4
B8
80
80
80
ENDCHAR
STARTCHAR q
ENCODING 113
SWIDTH 630 0
DWIDTH 9 0
BBX 7 10 1 -3
BITMAP
3A
46
82
82
82
C6
7A
02
02
02
ENDCHAR
STARTCHAR r
ENCODING 114
SWIDTH 409 0
DWIDTH 6 0
BBX 4 7 1 0
BITMAP
B0
C0
80
80
80
80
80
ENDCHAR
STARTCHAR s
ENCODING 115
SWIDTH 510 0
DWIDTH 7 0
BBX 5 7 1 0
BITMAP
70
80
C0
70
08
88
F0
ENDCHAR
STARTCHAR t
ENCODING 116
SWIDTH 374 0
DWIDTH 5 0
BBX 4 9 1 0
BITMAP
40
40
F0
40
40
40
40
40
30
ENDCHAR
STARTCHAR u
ENCODING 117
SWIDTH 620 0
DWIDTH 9 0
BBX 6 7 1 0
BITMAP
84
84
84
84
84
8C
74
ENDCHAR
STARTCHAR v
ENCODING 118
SWIDTH 572 0
DWIDTH 7 0
BBX 7 7 0 0
BITMAP
82
44
44
68
28
28
10
ENDCHAR
STARTCHAR w
ENCODING 119
SWIDTH 840 0
DWIDTH 11 0
BBX 11 7 0 0
BITMAP
8420
4A40
4A40
4A40
3280
3180
3180
ENDCHAR
STARTCHAR x
ENCODING 120
SWIDTH 613 0
DWIDTH 9 0
BBX 7 7 1 0
BITMAP
C6
6C
28
10
28
4C
C6
ENDCHAR
STARTCHAR y
ENCODING 121
SWIDTH 568 0
DWIDTH 7 0
BBX 7 10 0 -3
BITMAP
82
44
44
2C
28
28
10
10
30
20
ENDCHAR
STARTCHAR z
ENCODING 122
SWIDTH 573 0
DWIDTH 8 0
BBX 6 7 1 0
BITMAP
FC
08
10
30
60
40
FC
ENDCHAR
STARTCHAR braceleft
ENCODING 123
SWIDTH 325 0
DWIDTH 5 0
BBX 3 13 0 -3
BITMAP
20
40
40
40
40
40
80
40
40
40
40
40
20
ENDCHAR
STARTCHAR bar
ENCODING 124
SWIDTH 265 0
DWIDTH 4 0
BBX 1 13 1 -3
BITMAP
80
80
80
80
80
80
80
80
80
80
80
80
80
ENDCHAR
STARTCHAR braceright
ENCODING 125
SWIDTH 325 0
DWIDTH 5 0
BBX 3 13 1 -3
BITMAP
80
40
40
40
40
40
20
40
40
40
40
40
80
ENDCHAR
STARTCHAR asciitilde
ENCODING 126
SWIDTH 633 0
DWIDTH 9 0
BBX 8 3 0 2
BITMAP
61
99
86
ENDCHAR
STARTCHAR space
ENCODING 160
SWIDTH 316 0
DWIDTH 4 0
BBX 1 1 0 0
BITMAP
00
ENDCHAR
STARTCHAR exclamdown
ENCODING 161
SWIDTH 205 0
DWIDTH 4 0
BBX 1 10 2 -3
BITMAP
80
00
00
80
80
80
80
80
80
80
ENDCHAR
STARTCHAR cent
ENCODING 162
SWIDTH 633 0
DWIDTH 9 0
BBX 6 10 1 0
BITMAP
10
3C
54
90
90
90
90
50
3C
10
ENDCHAR
STARTCHAR sterling
ENCODING 163
SWIDTH 633 0
DWIDTH 9 0
BBX 5 10 2 0
BITMAP
38
40
40
40
E0
40
40
40
80
F8
ENDCHAR
STARTCHAR currency
ENCODING 164
SWIDTH 633 0
DWIDTH 9 0
BBX 8 8 0 1
BITMAP
81
7E
66
42
42
66
7E
81
ENDCHAR
STARTCHAR yen
ENCODING 165
SWIDTH 633 0
DWIDTH 9 0
BBX 7 10 1 0
BITMAP
C6
44
28
10
7C
10
7C
10
10
10
ENDCHAR
STARTCHAR brokenbar
ENCODING 166
SWIDTH 265 0
DWIDTH 4 0
BBX 1 13 1 -3
BITMAP
80
80
80
80
80
00
00
00
80
80
80
80
80
ENDCHAR
STARTCHAR section
ENCODING 167
SWIDTH 633 0
DWIDTH 9 0
BBX 6 13 2 -3
BITMAP
7C
80
80
C0
70
8C
84
C4
38
0C
04
84
F8
ENDCHAR
STARTCHAR dieresis
ENCODING 168
SWIDTH 614 0
DWIDTH 9 0
BBX 4 1 2 9
BITMAP
90
ENDCHAR
STARTCHAR copyright
ENCODING 169
SWIDTH 855 0
DWIDTH 12 0
BBX 11 10 0 0
BITMAP
1F00
2080
4E40
9820
9020
9020
9820
4E40
2080
1F00
ENDCHAR
STARTCHAR ordfeminine
ENCODING 170
SWIDTH 422 0
DWIDTH 6 0
BBX 5 5 1 5
BITMAP
F0
90
70
90
F8
ENDCHAR
STARTCHAR guillemotleft
ENCODING 171
SWIDTH 524 0
DWIDTH 7 0
BBX 6 7 1 0
BITMAP
24
28
58
90
58
28
24
ENDCHAR
STARTCHAR logicalnot
ENCODING 172
SWIDTH 633 0
DWIDTH 9 0
BBX 8 4 0 2
BITMAP
FF
01
01
01
ENDCHAR
STARTCHAR hyphen
ENCODING 173
SWIDTH 325 0
DWIDTH 5 0
BBX 3 1 1 4
BITMAP
E0
ENDCHAR
STARTCHAR registered
ENCODING 174
SWIDTH 633 0
DWIDTH 9 0
BBX 7 6 1 4
BITMAP
7C
FE
AA
B2
EE
7C
ENDCHAR
STARTCHAR macron
ENCODING 175
SWIDTH 614 0
DWIDTH 9 0
BBX 4 1 2 9
BITMAP
F0
ENDCHAR
STARTCHAR degree
ENCODING 176
SWIDTH 277 0
DWIDTH 4 0
BBX 3 2 2 8
BITMAP
E0
60
ENDCHAR
STARTCHAR plusminus
ENCODING 177
SWIDTH 633 0
DWIDTH 9 0
BBX 9 8 0 0
BITMAP
0800
0800
0800
FF80
0800
0800
0000
FF80
ENDCHAR
STARTCHAR twosuperior
ENCODING 178
SWIDTH 422 0
DWIDTH 5 0
BBX 4 6 -8 4
BITMAP
E0
10
10
60
C0
F0
ENDCHAR
STARTCHAR threesuperior
ENCODING 179
SWIDTH 422 0
DWIDTH 5 0
BBX 4 6 -8 4
BITMAP
E0
10
60
30
10
E0
ENDCHAR
STARTCHAR acute
ENCODING 180
SWIDTH 614 0
DWIDTH 9 0
BBX 3 1 3 9
BITMAP
E0
ENDCHAR
STARTCHAR mu
ENCODING 181
SWIDTH 627 0
DWIDTH 9 0
BBX 6 10 1 -3
BITMAP
84
84
84
84
84
8C
F4
80
80
80
ENDCHAR
STARTCHAR paragraph
ENCODING 182
SWIDTH 633 0
DWIDTH 9 0
BBX 6 13 1 -3
BITMAP
7C
F4
F4
F4
74
14
14
14
14
14
14
14
14
ENDCHAR
STARTCHAR periodcentered
ENCODING 183
SWIDTH 316 0
DWIDTH 9 0
BBX 2 1 3 4
BITMAP
C0
ENDCHAR
STARTCHAR cedilla
ENCODING 184
SWIDTH 614 0
DWIDTH 9 0
BBX 2 3 4 -3
BITMAP
C0
40
C0
ENDCHAR
STARTCHAR onesuperior
ENCODING 185
SWIDTH 422 0
DWIDTH 5 0
BBX 2 6 -8 4
BITMAP
C0
40
40
40
40
40
ENDCHAR
STARTCHAR ordmasculine
ENCODING 186
SWIDTH 422 0
DWIDTH 6 0
BBX 5 5 0 5
BITMAP
70
88
88
88
70
ENDCHAR
STARTCHAR guillemotright
ENCODING 187
SWIDTH 524 0
DWIDTH 7 0
BBX 6 7 1 0
BITMAP
90
50
68
24
68
50
90
ENDCHAR
STARTCHAR onequarter
ENCODING 188
SWIDTH 801 0
DWIDTH 11 0
BBX 10 10 3 0
BITMAP
C180
4100
4200
4400
4D80
5B80
1680
27C0
4080
C080
ENDCHAR
STARTCHAR onehalf
ENCODING 189
SWIDTH 801 0
DWIDTH 11 0
BBX 9 10 3 0
BITMAP
C180
4100
4200
4400
4F00
5880
1080
2300
4600
C780
ENDCHAR
STARTCHAR threequarters
ENCODING 190
SWIDTH 873 0
DWIDTH 11 0
BBX 10 10 3 0
BITMAP
E180
1100
6200
3400
1D80
FB80
1680
27C0
4080
C080
ENDCHAR
STARTCHAR questiondown
ENCODING 191
SWIDTH 422 0
DWIDTH 6 0
BBX 5 10 0 -3
BITMAP
10
00
00
10
30
60
C0
80
88
78
ENDCHAR
STARTCHAR Agrave
ENCODING 192
SWIDTH 690 0
DWIDTH 10 0
BBX 9 12 0 0
BITMAP
1C00
0000
0800
1400
1400
1400
2200
2200
7F00
4100
4100
8080
ENDCHAR
STARTCHAR Aacute
ENCODING 193
SWIDTH 690 0
DWIDTH 10 0
BBX 9 12 0 0
BITMAP
1C00
0000
0800
1400
1400
1400
2200
2200
7F00
4100
4100
8080
ENDCHAR
STARTCHAR Acircumflex
ENCODING 194
SWIDTH 690 0
DWIDTH 10 0
BBX 9 12 0 0
BITMAP
3E00
0000
0800
1400
1400
1400
2200
2200
7F00
4100
4100
8080
ENDCHAR
STARTCHAR Atilde
ENCODING 195
SWIDTH 690 0
DWIDTH 10 0
BBX 9 12 0 0
BITMAP
3E00
0000
0800
1400
1400
1400
2200
2200
7F00
4100
4100
8080
ENDCHAR
STARTCHAR Adieresis
ENCODING 196
SWIDTH 690 0
DWIDTH 10 0
BBX 9 12 0 0
BITMAP
1200
0000
0800
1400
1400
1400
2200
2200
7F00
4100
4100
8080
ENDCHAR
STARTCHAR Aring
ENCODING 197
SWIDTH 690 0
DWIDTH 10 0
BBX 9 13 0 0
BITMAP
0C00
1200
0C00
0800
1400
1400
1400
2200
2200
7F00
4100
4100
8080
ENDCHAR
STARTCHAR AE
ENCODING 198
SWIDTH 907 0
DWIDTH 13 0
BBX 12 10 0 0
BITMAP
07F0
0600
0A00
0A00
13E0
1200
3E00
6200
4200
C3F0
ENDCHAR
STARTCHAR Ccedilla
ENCODING 199
SWIDTH 692 0
DWIDTH 10 0
BBX 8 13 1 -3
BITMAP
1F
61
40
80
80
80
80
40
61
1E
08
08
18
ENDCHAR
STARTCHAR Egrave
ENCODING 200
SWIDTH 542 0
DWIDTH 8 0
BBX 6 12 1 0
BITMAP
70
00
FC
80
80
80
F8
80
80
80
80
FC
ENDCHAR
STARTCHAR Eacute
ENCODING 201
SWIDTH 542 0
DWIDTH 8 0
BBX 6 12 1 0
BITMAP
70
00
FC
80
80
80
F8
80
80
80
80
FC
ENDCHAR
STARTCHAR Ecircumflex
ENCODING 202
SWIDTH 542 0
DWIDTH 8 0
BBX 6 12 1 0
BITMAP
F8
00
FC
80
80
80
F8
80
80
80
80
FC
ENDCHAR
STARTCHAR Edieresis
ENCODING 203
SWIDTH 542 0
DWIDTH 8 0
BBX 6 12 1 0
BITMAP
48
00
FC
80
80
80
F8
80
80
80
80
FC
ENDCHAR
STARTCHAR Igrave
ENCODING 204
SWIDTH 288 0
DWIDTH 4 0
BBX 3 12 3 0
BITMAP
E0
00
40
40
40
40
40
40
40
40
40
40
ENDCHAR
STARTCHAR Iacute
ENCODING 205
SWIDTH 288 0
DWIDTH 4 0
BBX 3 12 3 0
BITMAP
E0
00
40
40
40
40
40
40
40
40
40
40
ENDCHAR
STARTCHAR Icircumflex
ENCODING 206
SWIDTH 288 0
DWIDTH 4 0
BBX 5 12 4 0
BITMAP
F8
00
20
20
20
20
20
20
20
20
20
20
ENDCHAR
STARTCHAR Idieresis
ENCODING 207
SWIDTH 288 0
DWIDTH 4 0
BBX 4 12 4 0
BITMAP
90
00
20
20
20
20
20
20
20
20
20
20
ENDCHAR
STARTCHAR Eth
ENCODING 208
SWIDTH 749 0
DWIDTH 10 0
BBX 10 10 0 0
BITMAP
3F00
2180
20C0
2040
F840
2040
2040
2040
2080
3F00
ENDCHAR
STARTCHAR Ntilde
ENCODING 209
SWIDTH 741 0
DWIDTH 10 0
BBX 8 12 1 0
BITMAP
3E
00
81
C1
A1
B1
91
89
8D
85
83
81
ENDCHAR
STARTCHAR Ograve
ENCODING 210
SWIDTH 777 0
DWIDTH 11 0
BBX 9 12 1 0
BITMAP
1C00
0000
3E00
6300
4100
8080
8080
8080
8080
4100
6300
3E00
ENDCHAR
STARTCHAR Oacute
ENCODING 211
SWIDTH 777 0
DWIDTH 11 0
BBX 9 12 1 0
BITMAP
1C00
0000
3E00
6300
4100
8080
8080
8080
8080
4100
6300
3E00
ENDCHAR
STARTCHAR Ocircumflex
ENCODING 212
SWIDTH 777 0
DWIDTH 11 0
BBX 9 12 1 0
BITMAP
3E00
0000
3E00
6300
4100
8080
8080
8080
8080
4100
6300
3E00
ENDCHAR
STARTCHAR Otilde
ENCODING 213
SWIDTH 777 0
DWIDTH 11 0
BBX 9 12 1 0
BITMAP
3E00
0000
3E00
6300
4100
8080
8080
8080
8080
4100
6300
3E00
ENDCHAR
STARTCHAR Odieresis
ENCODING 214
SWIDTH 777 0
DWIDTH 11 0
BBX 9 12 1 0
BITMAP
1200
0000
3E00
6300
4100
8080
8080
8080
8080
4100
6300
3E00
ENDCHAR
STARTCHAR multiply
ENCODING 215
SWIDTH 633 0
DWIDTH 9 0
BBX 8 8 0 0
BITMAP
81
42
24
18
18
24
42
81
ENDCHAR
STARTCHAR Oslash
ENCODING 216
SWIDTH 777 0
DWIDTH 11 0
BBX 9 10 1 0
BITMAP
3F80
6300
4300
8480
8C80
9880
9080
6100
6300
FE00
ENDCHAR
STARTCHAR Ugrave
ENCODING 217
SWIDTH 693 0
DWIDTH 10 0
BBX 7 12 1 0
BITMAP
38
00
82
82
82
82
82
82
82
82
C6
7C
ENDCHAR
STARTCHAR Uacute
ENCODING 218
SWIDTH 693 0
DWIDTH 10 0
BBX 7 12 1 0
BITMAP
38
00
82
82
82
82
82
82
82
82
C6
7C
ENDCHAR
STARTCHAR Ucircumflex
ENCODING 219
SWIDTH 693 0
DWIDTH 10 0
BBX 7 12 1 0
BITMAP
7C
00
82
82
82
82
82
82
82
82
C6
7C
ENDCHAR
STARTCHAR Udieresis
ENCODING 220
SWIDTH 693 0
DWIDTH 10 0
BBX 7 12 1 0
BITMAP
48
00
82
82
82
82
82
82
82
82
C6
7C
ENDCHAR
STARTCHAR Yacute
ENCODING 221
SWIDTH 623 0
DWIDTH 9 0
BBX 8 12 0 0
BITMAP
1C
00
C3
42
24
24
18
10
10
10
10
10
ENDCHAR
STARTCHAR Thorn
ENCODING 222
SWIDTH 553 0
DWIDTH 8 0
BBX 6 10 1 0
BITMAP
80
80
F8
84
84
84
88
F0
80
80
ENDCHAR
STARTCHAR germandbls
ENCODING 223
SWIDTH 598 0
DWIDTH 8 0
BBX 6 11 2 0
BITMAP
70
88
88
90
A0
A0
90
8C
84
A4
B8
ENDCHAR
STARTCHAR agrave
ENCODING 224
SWIDTH 552 0
DWIDTH 8 0
BBX 7 9 1 0
BITMAP
70
00
7C
44
04
7C
84
84
7E
ENDCHAR
STARTCHAR aacute
ENCODING 225
SWIDTH 552 0
DWIDTH 8 0
BBX 7 9 1 0
BITMAP
38
00
7C
44
04
7C
84
84
7E
ENDCHAR
STARTCHAR acircumflex
ENCODING 226
SWIDTH 552 0
DWIDTH 8 0
BBX 7 9 1 0
BITMAP
7C
00
7C
44
04
7C
84
84
7E
ENDCHAR
STARTCHAR atilde
ENCODING 227
SWIDTH 552 0
DWIDTH 8 0
BBX 7 9 1 0
BITMAP
7C
00
7C
44
04
7C
84
84
7E
ENDCHAR
STARTCHAR adieresis
ENCODING 228
SWIDTH 552 0
DWIDTH 8 0
BBX 7 9 1 0
BITMAP
48
00
7C
44
04
7C
84
84
7E
ENDCHAR
STARTCHAR aring
ENCODING 229
SWIDTH 552 0
DWIDTH 8 0
BBX 7 10 1 0
BITMAP
30
48
00
7C
44
04
7C
84
84
7E
ENDCHAR
STARTCHAR ae
ENCODING 230
SWIDTH 853 0
DWIDTH 12 0
BBX 9 7 1 0
BITMAP
7700
4C80
0880
7F80
8800
8C00
7780
ENDCHAR
STARTCHAR ccedilla
ENCODING 231
SWIDTH 518 0
DWIDTH 7 0
BBX 5 10 1 -3
BITMAP
78
C0
80
80
80
C0
78
10
10
30
ENDCHAR
STARTCHAR egrave
ENCODING 232
SWIDTH 557 0
DWIDTH 8 0
BBX 6 9 1 0
BITMAP
70
00
78
44
84
FC
80
40
3C
ENDCHAR
STARTCHAR eacute
ENCODING 233
SWIDTH 557 0
DWIDTH 8 0
BBX 6 9 1 0
BITMAP
38
00
78
44
84
FC
80
40
3C
ENDCHAR
STARTCHAR ecircumflex
ENCODING 234
SWIDTH 557 0
DWIDTH 8 0
BBX 6 9 1 0
BITMAP
7C
00
78
44
84
FC
80
40
3C
ENDCHAR
STARTCHAR edieresis
ENCODING 235
SWIDTH 557 0
DWIDTH 8 0
BBX 6 9 1 0
BITMAP
48
00
78
44
84
FC
80
40
3C
ENDCHAR
STARTCHAR igrave
ENCODING 236
SWIDTH 289 0
DWIDTH 4 0
BBX 3 9 3 0
BITMAP
E0
00
40
40
40
40
40
40
40
ENDCHAR
STARTCHAR iacute
ENCODING 237
SWIDTH 289 0
DWIDTH 4 0
BBX 3 9 3 0
BITMAP
E0
00
40
40
40
40
40
40
40
ENDCHAR
STARTCHAR icircumflex
ENCODING 238
SWIDTH 289 0
DWIDTH 4 0
BBX 5 9 4 0
BITMAP
F8
00
20
20
20
20
20
20
20
ENDCHAR
STARTCHAR idieresis
ENCODING 239
SWIDTH 289 0
DWIDTH 4 0
BBX 4 9 4 0
BITMAP
90
00
20
20
20
20
20
20
20
ENDCHAR
STARTCHAR eth
ENCODING 240
SWIDTH 602 0
DWIDTH 8 0
BBX 7 10 1 0
BITMAP
F8
78
8C
3C
46
82
82
82
44
38
ENDCHAR
STARTCHAR ntilde
ENCODING 241
SWIDTH 620 0
DWIDTH 9 0
BBX 6 9 1 0
BITMAP
F8
00
B8
C4
84
84
84
84
84
ENDCHAR
STARTCHAR ograve
ENCODING 242
SWIDTH 614 0
DWIDTH 9 0
BBX 7 9 1 0
BITMAP
38
00
38
44
82
82
82
44
38
ENDCHAR
STARTCHAR oacute
ENCODING 243
SWIDTH 614 0
DWIDTH 9 0
BBX 7 9 1 0
BITMAP
38
00
38
44
82
82
82
44
38
ENDCHAR
STARTCHAR ocircumflex
ENCODING 244
SWIDTH 614 0
DWIDTH 9 0
BBX 7 9 1 0
BITMAP
7C
00
38
44
82
82
82
44
38
ENDCHAR
STARTCHAR otilde
ENCODING 245
SWIDTH 614 0
DWIDTH 9 0
BBX 7 9 1 0
BITMAP
7C
00
38
44
82
82
82
44
38
ENDCHAR
STARTCHAR odieresis
ENCODING 246
SWIDTH 614 0
DWIDTH 9 0
BBX 7 9 1 0
BITMAP
48
00
38
44
82
82
82
44
38
ENDCHAR
STARTCHAR divide
ENCODING 247
SWIDTH 633 0
DWIDTH 9 0
BBX 7 7 1 0
BITMAP
10
00
00
FE
00
00
10
ENDCHAR
STARTCHAR oslash
ENCODING 248
SWIDTH 614 0
DWIDTH 9 0
BBX 7 7 1 0
BITMAP
3E
44
8A
92
A2
44
F8
ENDCHAR
STARTCHAR ugrave
ENCODING 249
SWIDTH 620 0
DWIDTH 9 0
BBX 6 9 1 0
BITMAP
70
00
84
84
84
84
84
8C
74
ENDCHAR
STARTCHAR uacute
ENCODING 250
SWIDTH 620 0
DWIDTH 9 0
BBX 6 9 1 0
BITMAP
38
00
84
84
84
84
84
8C
74
ENDCHAR
STARTCHAR ucircumflex
ENCODING 251
SWIDTH 620 0
DWIDTH 9 0
BBX 6 9 1 0
BITMAP
7C
00
84
84
84
84
84
8C
74
ENDCHAR
STARTCHAR udieresis
ENCODING 252
SWIDTH 620 0
DWIDTH 9 0
BBX 6 9 1 0
BITMAP
48
00
84
84
84
84
84
8C
74
ENDCHAR
STARTCHAR yacute
ENCODING 253
SWIDTH 568 0
DWIDTH 7 0
BBX 7 12 0 -3
BITMAP
38
00
82
44
44
2C
28
28
10
10
30
20
ENDCHAR
STARTCHAR thorn
ENCODING 254
SWIDTH 630 0
DWIDTH 9 0
BBX 7 13 1 -3
BITMAP
80
80
80
BC
C6
82
82
82
C4
B8
80
80
80
ENDCHAR
STARTCHAR ydieresis
ENCODING 255
SWIDTH 568 0
DWIDTH 7 0
BBX 7 12 0 -3
BITMAP
48
00
82
44
44
2C
28
28
10
10
30
20
ENDCHAR
STARTCHAR Amacron
ENCODING 256
SWIDTH 690 0
DWIDTH 10 0
BBX 9 12 0 0
BITMAP
1E00
0000
0800
1400
1400
1400
2200
2200
7F00
4100
4100
8080
ENDCHAR
STARTCHAR amacron
ENCODING 257
SWIDTH 552 0
DWIDTH 8 0
BBX 7 9 1 0
BITMAP
3C
00
7C
44
04
7C
84
84
7E
ENDCHAR
STARTCHAR Abreve
ENCODING 258
SWIDTH 690 0
DWIDTH 10 0
BBX 9 12 0 0
BITMAP
3E00
0000
0800
1400
1400
1400
2200
2200
7F00
4100
4100
8080
ENDCHAR
STARTCHAR abreve
ENCODING 259
SWIDTH 552 0
DWIDTH 8 0
BBX 7 9 1 0
BITMAP
7C
00
7C
44
04
7C
84
84
7E
ENDCHAR
STARTCHAR Aogonek
ENCODING 260
SWIDTH 690 0
DWIDTH 10 0
BBX 9 13 0 -3
BITMAP
0800
1400
1400
1400
2200
2200
7F00
4100
4100
8080
0000
0000
0C00
ENDCHAR
STARTCHAR aogonek
ENCODING 261
SWIDTH 552 0
DWIDTH 8 0
BBX 7 10 1 -3
BITMAP
7C
44
04
7C
84
84
7E
00
00
18
ENDCHAR
STARTCHAR Cacute
ENCODING 262
SWIDTH 692 0
DWIDTH 10 0
BBX 8 12 1 0
BITMAP
1C
00
1F
61
40
80
80
80
80
40
61
1E
ENDCHAR
STARTCHAR cacute
ENCODING 263
SWIDTH 518 0
DWIDTH 7 0
BBX 5 9 1 0
BITMAP
70
00
78
C0
80
80
80
C0
78
ENDCHAR
STARTCHAR Ccircumflex
ENCODING 264
SWIDTH 692 0
DWIDTH 10 0
BBX 8 12 1 0
BITMAP
3E
00
1F
61
40
80
80
80
80
40
61
1E
ENDCHAR
STARTCHAR ccircumflex
ENCODING 265
SWIDTH 518 0
DWIDTH 7 0
BBX 5 9 1 0
BITMAP
F8
00
78
C0
80
80
80
C0
78
ENDCHAR
STARTCHAR Cdotaccent
ENCODING 266
SWIDTH 692 0
DWIDTH 10 0
BBX 8 12 1 0
BITMAP
08
00
1F
61
40
80
80
80
80
40
61
1E
ENDCHAR
STARTCHAR cdotaccent
ENCODING 267
SWIDTH 518 0
DWIDTH 7 0
BBX 5 9 1 0
BITMAP
20
00
78
C0
80
80
80
C0
78
ENDCHAR
STARTCHAR Ccaron
ENCODING 268
SWIDTH 692 0
DWIDTH 10 0
BBX 8 12 1 0
BITMAP
3E
00
1F
61
40
80
80
80
80
40
61
1E
ENDCHAR
STARTCHAR ccaron
ENCODING 269
SWIDTH 518 0
DWIDTH 7 0
BBX 5 9 1 0
BITMAP
F8
00
78
C0
80
80
80
C0
78
ENDCHAR
STARTCHAR Dcaron
ENCODING 270
SWIDTH 749 0
DWIDTH 10 0
BBX 8 12 2 0
BITMAP
7C
00
FC
86
83
81
81
81
81
81
82
FC
ENDCHAR
STARTCHAR dcaron
ENCODING 271
SWIDTH 828 0
DWIDTH 12 0
BBX 11 10 1 0
BITMAP
0260
0220
0260
3A00
4600
8200
8200
8200
C600
7A00
ENDCHAR
STARTCHAR Dcroat
ENCODING 272
SWIDTH 749 0
DWIDTH 10 0
BBX 10 10 0 0
BITMAP
3F00
2180
20C0
2040
F840
2040
2040
2040
2080
3F00
ENDCHAR
STARTCHAR dcroat
ENCODING 273
SWIDTH 630 0
DWIDTH 9 0
BBX 7 10 1 0
BITMAP
02
1E
02
3A
46
82
82
82
C6
7A
ENDCHAR
STARTCHAR Emacron
ENCODING 274
SWIDTH 542 0
DWIDTH 8 0
BBX 6 12 1 0
BITMAP
78
00
FC
80
80
80
F8
80
80
80
80
FC
ENDCHAR
STARTCHAR emacron
ENCODING 275
SWIDTH 557 0
DWIDTH 8 0
BBX 6 9 1 0
BITMAP
78
00
78
44
84
FC
80
40
3C
ENDCHAR
STARTCHAR Ebreve
ENCODING 276
SWIDTH 542 0
DWIDTH 8 0
BBX 6 12 1 0
BITMAP
F8
00
FC
80
80
80
F8
80
80
80
80
FC
ENDCHAR
STARTCHAR ebreve
ENCODING 277
SWIDTH 557 0
DWIDTH 8 0
BBX 6 9 1 0
BITMAP
7C
00
78
44
84
FC
80
40
3C
ENDCHAR
STARTCHAR Edotaccent
ENCODING 278
SWIDTH 542 0
DWIDTH 8 0
BBX 6 12 1 0
BITMAP
20
00
FC
80
80
80
F8
80
80
80
80
FC
ENDCHAR
STARTCHAR edotaccent
ENCODING 279
SWIDTH 557 0
DWIDTH 8 0
BBX 6 9 1 0
BITMAP
10
00
78
44
84
FC
80
40
3C
ENDCHAR
STARTCHAR Eogonek
ENCODING 280
SWIDTH 542 0
DWIDTH 8 0
BBX 6 13 1 -3
BITMAP
FC
80
80
80
F8
80
80
80
80
FC
00
00
30
ENDCHAR
STARTCHAR eogonek
ENCODING 281
SWIDTH 557 0
DWIDTH 8 0
BBX 6 10 1 -3
BITMAP
78
44
84
FC
80
40
3C
00
00
30
ENDCHAR
STARTCHAR Ecaron
ENCODING 282
SWIDTH 542 0
DWIDTH 8 0
BBX 6 12 1 0
BITMAP
F8
00
FC
80
80
80
F8
80
80
80
80
FC
ENDCHAR
STARTCHAR ecaron
ENCODING 283
SWIDTH 557 0
DWIDTH 8 0
BBX 6 9 1 0
BITMAP
7C
00
78
44
84
FC
80
40
3C
ENDCHAR
STARTCHAR Gcircumflex
ENCODING 284
SWIDTH 723 0
DWIDTH 10 0
BBX 8 12 1 0
BITMAP
3E
00
1F
61
40
80
80
81
81
C1
61
3F
ENDCHAR
STARTCHAR gcircumflex
ENCODING 285
SWIDTH 623 0
DWIDTH 9 0
BBX 7 12 1 -3
BITMAP
7C
00
3A
46
82
82
82
C6
7A
02
42
7C
ENDCHAR
STARTCHAR Gbreve
ENCODING 286
SWIDTH 723 0
DWIDTH 10 0
BBX 8 12 1 0
BITMAP
3E
00
1F
61
40
80
80
81
81
C1
61
3F
ENDCHAR
STARTCHAR gbreve
ENCODING 287
SWIDTH 623 0
DWIDTH 9 0
BBX 7 12 1 -3
BITMAP
7C
00
3A
46
82
82
82
C6
7A
02
42
7C
ENDCHAR
STARTCHAR Gdotaccent
ENCODING 288
SWIDTH 723 0
DWIDTH 10 0
BBX 8 12 1 0
BITMAP
08
00
1F
61
40
80
80
81
81
C1
61
3F
ENDCHAR
STARTCHAR gdotaccent
ENCODING 289
SWIDTH 623 0
DWIDTH 9 0
BBX 7 12 1 -3
BITMAP
10
00
3A
46
82
82
82
C6
7A
02
42
7C
ENDCHAR
STARTCHAR Gcommaaccent
ENCODING 290
SWIDTH 723 0
DWIDTH 10 0
BBX 8 16 1 -6
BITMAP
1F
61
40
80
80
81
81
C1
61
3F
00
18
18
08
08
10
ENDCHAR
STARTCHAR gcommaaccent
ENCODING 291
SWIDTH 623 0
DWIDTH 9 0
BBX 7 14 1 -3
BITMAP
18
10
18
00
3A
46
82
82
82
C6
7A
02
42
7C
ENDCHAR
STARTCHAR Hcircumflex
ENCODING 292
SWIDTH 735 0
DWIDTH 10 0
BBX 8 12 1 0
BITMAP
3E
00
81
81
81
81
FF
81
81
81
81
81
ENDCHAR
STARTCHAR hcircumflex
ENCODING 293
SWIDTH 620 0
DWIDTH 9 0
BBX 7 12 0 0
BITMAP
F8
00
40
40
40
5C
62
42
42
42
42
42
ENDCHAR
STARTCHAR Hbar
ENCODING 294
SWIDTH 735 0
DWIDTH 10 0
BBX 8 10 1 0
BITMAP
81
81
FF
81
FF
81
81
81
81
81
ENDCHAR
STARTCHAR hbar
ENCODING 295
SWIDTH 620 0
DWIDTH 9 0
BBX 6 10 1 0
BITMAP
80
F0
80
B8
C4
84
84
84
84
84
ENDCHAR
STARTCHAR Itilde
ENCODING 296
SWIDTH 288 0
DWIDTH 4 0
BBX 5 12 0 0
BITMAP
F8
00
20
20
20
20
20
20
20
20
20
20
ENDCHAR
STARTCHAR itilde
ENCODING 297
SWIDTH 289 0
DWIDTH 4 0
BBX 5 9 0 0
BITMAP
F8
00
20
20
20
20
20
20
20
ENDCHAR
STARTCHAR Imacron
ENCODING 298
SWIDTH 288 0
DWIDTH 4 0
BBX 4 12 1 0
BITMAP
F0
00
40
40
40
40
40
40
40
40
40
40
ENDCHAR
STARTCHAR imacron
ENCODING 299
SWIDTH 289 0
DWIDTH 4 0
BBX 4 9 1 0
BITMAP
F0
00
40
40
40
40
40
40
40
ENDCHAR
STARTCHAR Ibreve
ENCODING 300
SWIDTH 288 0
DWIDTH 4 0
BBX 5 12 0 0
BITMAP
F8
00
20
20
20
20
20
20
20
20
20
20
ENDCHAR
STARTCHAR ibreve
ENCODING 301
SWIDTH 289 0
DWIDTH 4 0
BBX 5 9 0 0
BITMAP
F8
00
20
20
20
20
20
20
20
ENDCHAR
STARTCHAR Iogonek
ENCODING 302
SWIDTH 288 0
DWIDTH 4 0
BBX 2 13 2 -3
BITMAP
80
80
80
80
80
80
80
80
80
80
00
00
C0
ENDCHAR
STARTCHAR iogonek
ENCODING 303
SWIDTH 289 0
DWIDTH 4 0
BBX 2 13 2 -3
BITMAP
80
00
00
80
80
80
80
80
80
80
00
00
C0
ENDCHAR
STARTCHAR Idotaccent
ENCODING 304
SWIDTH 288 0
DWIDTH 4 0
BBX 1 12 2 0
BITMAP
80
00
80
80
80
80
80
80
80
80
80
80
ENDCHAR
STARTCHAR dotlessi
ENCODING 305
SWIDTH 289 0
DWIDTH 4 0
BBX 1 7 2 0
BITMAP
80
80
80
80
80
80
80
ENDCHAR
STARTCHAR IJ
ENCODING 306
SWIDTH 585 0
DWIDTH 8 0
BBX 6 13 2 -3
BITMAP
84
84
84
84
84
84
84
84
84
84
04
04
38
ENDCHAR
STARTCHAR ij
ENCODING 307
SWIDTH 579 0
DWIDTH 8 0
BBX 6 13 2 -3
BITMAP
84
00
00
84
84
84
84
84
84
84
04
04
38
ENDCHAR
STARTCHAR Jcircumflex
ENCODING 308
SWIDTH 311 0
DWIDTH 4 0
BBX 6 15 0 -3
BITMAP
7C
00
10
10
10
10
10
10
10
10
10
10
10
10
E0
ENDCHAR
STARTCHAR jcircumflex
ENCODING 309
SWIDTH 304 0
DWIDTH 4 0
BBX 6 12 0 -3
BITMAP
7C
00
10
10
10
10
10
10
10
10
10
E0
ENDCHAR
STARTCHAR Kcommaaccent
ENCODING 310
SWIDTH 653 0
DWIDTH 9 0
BBX 8 16 1 -6
BITMAP
86
8C
98
B0
A0
E0
90
88
84
83
00
18
18
08
08
10
ENDCHAR
STARTCHAR kcommaaccent
ENCODING 311
SWIDTH 585 0
DWIDTH 8 0
BBX 6 16 2 -6
BITMAP
80
80
80
88
90
A0
C0
A0
90
8C
00
30
30
10
10
20
ENDCHAR
STARTCHAR kgreenlandic
ENCODING 312
SWIDTH 585 0
DWIDTH 8 0
BBX 6 7 2 0
BITMAP
88
90
A0
C0
A0
90
8C
ENDCHAR
STARTCHAR Lacute
ENCODING 313
SWIDTH 533 0
DWIDTH 7 0
BBX 6 12 1 0
BITMAP
E0
00
80
80
80
80
80
80
80
80
80
FC
ENDCHAR
STARTCHAR lacute
ENCODING 314
SWIDTH 289 0
DWIDTH 4 0
BBX 3 12 1 0
BITMAP
E0
00
40
40
40
40
40
40
40
40
40
40
ENDCHAR
STARTCHAR Lcommaaccent
ENCODING 315
SWIDTH 533 0
DWIDTH 7 0
BBX 6 16 1 -6
BITMAP
80
80
80
80
80
80
80
80
80
FC
00
30
30
10
10
20
ENDCHAR
STARTCHAR lcommaaccent
ENCODING 316
SWIDTH 289 0
DWIDTH 4 0
BBX 2 16 2 -6
BITMAP
80
80
80
80
80
80
80
80
80
80
00
C0
C0
40
40
80
ENDCHAR
STARTCHAR Lcaron
ENCODING 317
SWIDTH 735 0
DWIDTH 10 0
BBX 9 10 1 0
BITMAP
8180
8080
8180
8000
8000
8000
8000
8000
8000
FC00
ENDCHAR
STARTCHAR lcaron
ENCODING 318
SWIDTH 504 0
DWIDTH 7 0
BBX 5 10 2 0
BITMAP
98
88
98
80
80
80
80
80
80
80
ENDCHAR
STARTCHAR Ldot
ENCODING 319
SWIDTH 822 0
DWIDTH 16 0
BBX 11 10 1 0
BITMAP
8000
8000
8000
8000
8000
8060
8000
8000
8000
FC00
ENDCHAR
STARTCHAR ldot
ENCODING 320
SWIDTH 591 0
DWIDTH 13 0
BBX 7 10 2 0
BITMAP
80
80
80
80
80
86
80
80
80
80
ENDCHAR
STARTCHAR Lslash
ENCODING 321
SWIDTH 533 0
DWIDTH 7 0
BBX 8 10 0 0
BITMAP
20
20
20
28
30
E0
A0
20
20
3F
ENDCHAR
STARTCHAR lslash
ENCODING 322
SWIDTH 289 0
DWIDTH 4 0
BBX 5 10 0 0
BITMAP
20
20
20
28
30
E0
20
20
20
20
ENDCHAR
STARTCHAR Nacute
ENCODING 323
SWIDTH 741 0
DWIDTH 10 0
BBX 8 12 1 0
BITMAP
38
00
81
C1
A1
B1
91
89
8D
85
83
81
ENDCHAR
STARTCHAR nacute
ENCODING 324
SWIDTH 620 0
DWIDTH 9 0
BBX 6 9 1 0
BITMAP
70
00
B8
C4
84
84
84
84
84
ENDCHAR
STARTCHAR Ncommaaccent
ENCODING 325
SWIDTH 741 0
DWIDTH 10 0
BBX 8 16 1 -6
BITMAP
81
C1
A1
B1
91
89
8D
85
83
81
00
18
18
08
08
10
ENDCHAR
STARTCHAR ncommaaccent
ENCODING 326
SWIDTH 620 0
DWIDTH 9 0
BBX 6 13 1 -6
BITMAP
B8
C4
84
84
84
84
84
00
30
30
10
10
20
ENDCHAR
STARTCHAR Ncaron
ENCODING 327
SWIDTH 741 0
DWIDTH 10 0
BBX 8 12 1 0
BITMAP
7C
00
81
C1
A1
B1
91
89
8D
85
83
81
ENDCHAR
STARTCHAR ncaron
ENCODING 328
SWIDTH 620 0
DWIDTH 9 0
BBX 6 9 1 0
BITMAP
F8
00
B8
C4
84
84
84
84
84
ENDCHAR
STARTCHAR napostrophe
ENCODING 329
SWIDTH 838 0
DWIDTH 12 0
BBX 9 10 1 0
BITMAP
C000
4000
C000
1700
1880
1080
1080
1080
1080
1080
ENDCHAR
STARTCHAR Eng
ENCODING 330
SWIDTH 741 0
DWIDTH 10 0
BBX 8 13 1 -3
BITMAP
81
C1
A1
B1
91
89
8D
85
83
81
01
01
0E
ENDCHAR
STARTCHAR eng
ENCODING 331
SWIDTH 620 0
DWIDTH 9 0
BBX 6 10 1 -3
BITMAP
B8
C4
84
84
84
84
84
04
04
38
ENDCHAR
STARTCHAR Omacron
ENCODING 332
SWIDTH 777 0
DWIDTH 11 0
BBX 9 12 1 0
BITMAP
1E00
0000
3E00
6300
4100
8080
8080
8080
8080
4100
6300
3E00
ENDCHAR
STARTCHAR omacron
ENCODING 333
SWIDTH 614 0
DWIDTH 9 0
BBX 7 9 1 0
BITMAP
3C
00
38
44
82
82
82
44
38
ENDCHAR
STARTCHAR Obreve
ENCODING 334
SWIDTH 777 0
DWIDTH 11 0
BBX 9 12 1 0
BITMAP
3E00
0000
3E00
6300
4100
8080
8080
8080
8080
4100
6300
3E00
ENDCHAR
STARTCHAR obreve
ENCODING 335
SWIDTH 614 0
DWIDTH 9 0
BBX 7 9 1 0
BITMAP
7C
00
38
44
82
82
82
44
38
ENDCHAR
STARTCHAR Ohungarumlaut
ENCODING 336
SWIDTH 777 0
DWIDTH 11 0
BBX 9 12 1 0
BITMAP
1E00
0000
3E00
6300
4100
8080
8080
8080
8080
4100
6300
3E00
ENDCHAR
STARTCHAR ohungarumlaut
ENCODING 337
SWIDTH 614 0
DWIDTH 9 0
BBX 7 9 1 0
BITMAP
3C
00
38
44
82
82
82
44
38
ENDCHAR
STARTCHAR OE
ENCODING 338
SWIDTH 1000 0
DWIDTH 14 0
BBX 13 10 1 0
BITMAP
3FF8
6300
4100
8100
81F0
8100
8100
4100
6300
3FF8
ENDCHAR
STARTCHAR oe
ENCODING 339
SWIDTH 930 0
DWIDTH 13 0
BBX 12 7 0 0
BITMAP
3DE0
4710
8210
83F0
8200
4700
3DF0
ENDCHAR
STARTCHAR Racute
ENCODING 340
SWIDTH 633 0
DWIDTH 9 0
BBX 6 12 2 0
BITMAP
70
00
F8
84
84
84
88
F0
98
88
84
84
ENDCHAR
STARTCHAR racute
ENCODING 341
SWIDTH 409 0
DWIDTH 6 0
BBX 4 9 1 0
BITMAP
E0
00
B0
C0
80
80
80
80
80
ENDCHAR
STARTCHAR Rcommaaccent
ENCODING 342
SWIDTH 633 0
DWIDTH 9 0
BBX 6 16 2 -6
BITMAP
F8
84
84
84
88
F0
98
88
84
84
00
30
30
10
10
20
ENDCHAR
STARTCHAR rcommaaccent
ENCODING 343
SWIDTH 409 0
DWIDTH 6 0
BBX 4 13 1 -6
BITMAP
B0
C0
80
80
80
80
80
00
C0
C0
40
40
80
ENDCHAR
STARTCHAR Rcaron
ENCODING 344
SWIDTH 633 0
DWIDTH 9 0
BBX 6 12 2 0
BITMAP
F8
00
F8
84
84
84
88
F0
98
88
84
84
ENDCHAR
STARTCHAR rcaron
ENCODING 345
SWIDTH 409 0
DWIDTH 6 0
BBX 5 9 0 0
BITMAP
F8
00
58
60
40
40
40
40
40
ENDCHAR
STARTCHAR Sacute
ENCODING 346
SWIDTH 539 0
DWIDTH 8 0
BBX 6 12 1 0
BITMAP
70
00
78
88
80
C0
60
18
04
04
8C
F8
ENDCHAR
STARTCHAR sacute
ENCODING 347
SWIDTH 510 0
DWIDTH 7 0
BBX 5 9 1 0
BITMAP
70
00
70
80
C0
70
08
88
F0
ENDCHAR
STARTCHAR Scircumflex
ENCODING 348
SWIDTH 539 0
DWIDTH 8 0
BBX 6 12 1 0
BITMAP
F8
00
78
88
80
C0
60
18
04
04
8C
F8
ENDCHAR
STARTCHAR scircumflex
ENCODING 349
SWIDTH 510 0
DWIDTH 7 0
BBX 5 9 1 0
BITMAP
F8
00
70
80
C0
70
08
88
F0
ENDCHAR
STARTCHAR Scedilla
ENCODING 350
SWIDTH 539 0
DWIDTH 8 0
BBX 6 13 1 -3
BITMAP
78
88
80
C0
60
18
04
04
8C
F8
30
10
30
ENDCHAR
STARTCHAR scedilla
ENCODING 351
SWIDTH 510 0
DWIDTH 7 0
BBX 5 10 1 -3
BITMAP
70
80
C0
70
08
88
F0
60
20
60
ENDCHAR
STARTCHAR Scaron
ENCODING 352
SWIDTH 539 0
DWIDTH 8 0
BBX 6 12 1 0
BITMAP
7C
00
78
88
80
C0
60
18
04
04
8C
F8
ENDCHAR
STARTCHAR scaron
ENCODING 353
SWIDTH 510 0
DWIDTH 7 0
BBX 5 9 1 0
BITMAP
F8
00
70
80
C0
70
08
88
F0
ENDCHAR
STARTCHAR Tcommaaccent
ENCODING 354
SWIDTH 633 0
DWIDTH 9 0
BBX 9 13 0 -3
BITMAP
FF80
0800
0800
0800
0800
0800
0800
0800
0800
0800
0C00
0400
0C00
ENDCHAR
STARTCHAR tcommaaccent
ENCODING 355
SWIDTH 374 0
DWIDTH 5 0
BBX 4 12 1 -3
BITMAP
40
40
F0
40
40
40
40
40
30
60
20
60
ENDCHAR
STARTCHAR Tcaron
ENCODING 356
SWIDTH 633 0
DWIDTH 9 0
BBX 9 12 0 0
BITMAP
3E00
0000
FF80
0800
0800
0800
0800
0800
0800
0800
0800
0800
ENDCHAR
STARTCHAR tcaron
ENCODING 357
SWIDTH 584 0
DWIDTH 8 0
BBX 7 10 1 0
BITMAP
06
42
46
F0
40
40
40
40
40
30
ENDCHAR
STARTCHAR Tbar
ENCODING 358
SWIDTH 633 0
DWIDTH 9 0
BBX 9 10 0 0
BITMAP
FF80
0800
0800
0800
1E00
0800
0800
0800
0800
0800
ENDCHAR
STARTCHAR tbar
ENCODING 359
SWIDTH 374 0
DWIDTH 5 0
BBX 4 9 1 0
BITMAP
40
40
F0
40
40
F0
40
40
30
ENDCHAR
STARTCHAR Utilde
ENCODING 360
SWIDTH 693 0
DWIDTH 10 0
BBX 7 12 1 0
BITMAP
7C
00
82
82
82
82
82
82
82
82
C6
7C
ENDCHAR
STARTCHAR utilde
ENCODING 361
SWIDTH 620 0
DWIDTH 9 0
BBX 6 9 1 0
BITMAP
7C
00
84
84
84
84
84
8C
74
ENDCHAR
STARTCHAR Umacron
ENCODING 362
SWIDTH 693 0
DWIDTH 10 0
BBX 7 12 1 0
BITMAP
3C
00
82
82
82
82
82
82
82
82
C6
7C
ENDCHAR
STARTCHAR umacron
ENCODING 363
SWIDTH 620 0
DWIDTH 9 0
BBX 6 9 1 0
BITMAP
78
00
84
84
84
84
84
8C
74
ENDCHAR
STARTCHAR Ubreve
ENCODING 364
SWIDTH 693 0
DWIDTH 10 0
BBX 7 12 1 0
BITMAP
7C
00
82
82
82
82
82
82
82
82
C6
7C
ENDCHAR
STARTCHAR ubreve
ENCODING 365
SWIDTH 620 0
DWIDTH 9 0
BBX 6 9 1 0
BITMAP
7C
00
84
84
84
84
84
8C
74
ENDCHAR
STARTCHAR Uring
ENCODING 366
SWIDTH 693 0
DWIDTH 10 0
BBX 7 14 1 0
BITMAP
18
24
18
00
82
82
82
82
82
82
82
82
C6
7C
ENDCHAR
STARTCHAR uring
ENCODING 367
SWIDTH 620 0
DWIDTH 9 0
BBX 6 11 1 0
BITMAP
30
48
30
00
84
84
84
84
84
8C
74
ENDCHAR
STARTCHAR Uhungarumlaut
ENCODING 368
SWIDTH 693 0
DWIDTH 10 0
BBX 7 12 1 0
BITMAP
3C
00
82
82
82
82
82
82
82
82
C6
7C
ENDCHAR
STARTCHAR uhungarumlaut
ENCODING 369
SWIDTH 620 0
DWIDTH 9 0
BBX 6 9 1 0
BITMAP
78
00
84
84
84
84
84
8C
74
ENDCHAR
STARTCHAR Uogonek
ENCODING 370
SWIDTH 693 0
DWIDTH 10 0
BBX 7 13 1 -3
BITMAP
82
82
82
82
82
82
82
82
C6
7C
00
00
18
ENDCHAR
STARTCHAR uogonek
ENCODING 371
SWIDTH 620 0
DWIDTH 9 0
BBX 6 10 1 -3
BITMAP
84
84
84
84
84
8C
74
00
00
30
ENDCHAR
STARTCHAR Wcircumflex
ENCODING 372
SWIDTH 855 0
DWIDTH 12 0
BBX 12 12 0 0
BITMAP
0F80
0000
8610
4630
4620
4620
4920
2940
2940
2940
3080
1080
ENDCHAR
STARTCHAR wcircumflex
ENCODING 373
SWIDTH 840 0
DWIDTH 11 0
BBX 11 9 0 0
BITMAP
1F00
0000
8420
4A40
4A40
4A40
3280
3180
3180
ENDCHAR
STARTCHAR Ycircumflex
ENCODING 374
SWIDTH 623 0
DWIDTH 9 0
BBX 8 12 0 0
BITMAP
3E
00
C3
42
24
24
18
10
10
10
10
10
ENDCHAR
STARTCHAR ycircumflex
ENCODING 375
SWIDTH 568 0
DWIDTH 7 0
BBX 7 12 0 -3
BITMAP
7C
00
82
44
44
2C
28
28
10
10
30
20
ENDCHAR
STARTCHAR Ydieresis
ENCODING 376
SWIDTH 623 0
DWIDTH 9 0
BBX 8 12 0 0
BITMAP
24
00
C3
42
24
24
18
10
10
10
10
10
ENDCHAR
STARTCHAR Zacute
ENCODING 377
SWIDTH 605 0
DWIDTH 8 0
BBX 7 12 1 0
BITMAP
38
00
FE
04
04
08
10
10
20
40
40
FE
ENDCHAR
STARTCHAR zacute
ENCODING 378
SWIDTH 573 0
DWIDTH 8 0
BBX 6 9 1 0
BITMAP
38
00
FC
08
10
30
60
40
FC
ENDCHAR
STARTCHAR Zdotaccent
ENCODING 379
SWIDTH 605 0
DWIDTH 8 0
BBX 7 12 1 0
BITMAP
10
00
FE
04
04
08
10
10
20
40
40
FE
ENDCHAR
STARTCHAR zdotaccent
ENCODING 380
SWIDTH 573 0
DWIDTH 8 0
BBX 6 9 1 0
BITMAP
10
00
FC
08
10
30
60
40
FC
ENDCHAR
STARTCHAR Zcaron
ENCODING 381
SWIDTH 605 0
DWIDTH 8 0
BBX 7 12 1 0
BITMAP
7C
00
FE
04
04
08
10
10
20
40
40
FE
ENDCHAR
STARTCHAR zcaron
ENCODING 382
SWIDTH 573 0
DWIDTH 8 0
BBX 6 9 1 0
BITMAP
7C
00
FC
08
10
30
60
40
FC
ENDCHAR
STARTCHAR uni0186
ENCODING 390
SWIDTH 692 0
DWIDTH 10 0
BBX 8 10 1 0
BITMAP
78
86
02
01
01
01
01
02
86
F8
ENDCHAR
STARTCHAR uni0189
ENCODING 393
SWIDTH 749 0
DWIDTH 10 0
BBX 10 10 0 0
BITMAP
3F00
2180
20C0
2040
F840
2040
2040
2040
2080
3F00
ENDCHAR
STARTCHAR uni018E
ENCODING 398
SWIDTH 542 0
DWIDTH 8 0
BBX 6 10 1 0
BITMAP
FC
04
04
04
04
7C
04
04
04
FC
ENDCHAR
STARTCHAR florin
ENCODING 402
SWIDTH 633 0
DWIDTH 9 0
BBX 7 13 1 -3
BITMAP
0E
10
10
20
20
F0
40
40
40
C0
80
80
80
ENDCHAR
STARTCHAR uni0197
ENCODING 407
SWIDTH 288 0
DWIDTH 4 0
BBX 4 10 1 0
BITMAP
40
40
40
40
F0
40
40
40
40
40
ENDCHAR
STARTCHAR uni019A
ENCODING 410
SWIDTH 289 0
DWIDTH 4 0
BBX 4 10 1 0
BITMAP
40
40
40
40
F0
40
40
40
40
40
ENDCHAR
STARTCHAR uni019D
ENCODING 413
SWIDTH 741 0
DWIDTH 10 0
BBX 11 13 -2 -3
BITMAP
1020
1820
1420
1620
1220
1120
11A0
10A0
1060
1020
1000
1000
E000
ENDCHAR
STARTCHAR uni019F
ENCODING 415
SWIDTH 777 0
DWIDTH 11 0
BBX 9 10 1 0
BITMAP
3E00
6300
4100
8080
FF80
8080
8080
4100
6300
3E00
ENDCHAR
STARTCHAR Ohorn
ENCODING 416
SWIDTH 777 0
DWIDTH 11 0
BBX 10 10 1 0
BITMAP
3EC0
6340
41C0
8080
8080
8080
8080
4100
6300
3E00
ENDCHAR
STARTCHAR ohorn
ENCODING 417
SWIDTH 614 0
DWIDTH 9 0
BBX 9 7 1 0
BITMAP
3980
4480
8380
8200
8200
4400
3800
ENDCHAR
STARTCHAR uni01A7
ENCODING 423
SWIDTH 539 0
DWIDTH 8 0
BBX 6 10 1 0
BITMAP
78
44
04
0C
18
60
80
80
C4
7C
ENDCHAR
STARTCHAR uni01A8
ENCODING 424
SWIDTH 510 0
DWIDTH 7 0
BBX 5 7 1 0
BITMAP
70
08
18
70
80
88
78
ENDCHAR
STARTCHAR uni01AE
ENCODING 430
SWIDTH 633 0
DWIDTH 9 0
BBX 9 13 0 -3
BITMAP
FF80
0800
0800
0800
0800
0800
0800
0800
0800
0800
0800
0800
0700
ENDCHAR
STARTCHAR Uhorn
ENCODING 431
SWIDTH 693 0
DWIDTH 10 0
BBX 9 10 1 0
BITMAP
8380
8280
8380
8200
8200
8200
8200
8200
C600
7C00
ENDCHAR
STARTCHAR uhorn
ENCODING 432
SWIDTH 620 0
DWIDTH 9 0
BBX 8 7 1 0
BITMAP
87
85
87
84
84
8C
74
ENDCHAR
STARTCHAR uni01B5
ENCODING 437
SWIDTH 605 0
DWIDTH 8 0
BBX 7 10 1 0
BITMAP
FE
04
04
08
3C
10
20
40
40
FE
ENDCHAR
STARTCHAR uni01B6
ENCODING 438
SWIDTH 573 0
DWIDTH 8 0
BBX 6 7 1 0
BITMAP
FC
08
10
78
60
40
FC
ENDCHAR
STARTCHAR uni01BB
ENCODING 443
SWIDTH 633 0
DWIDTH 9 0
BBX 6 10 1 0
BITMAP
78
8C
04
04
FC
18
20
40
C0
FC
ENDCHAR
STARTCHAR uni01BC
ENCODING 444
SWIDTH 633 0
DWIDTH 9 0
BBX 5 10 2 0
BITMAP
F8
80
80
80
F0
18
08
08
18
F0
ENDCHAR
STARTCHAR uni01C0
ENCODING 448
SWIDTH 265 0
DWIDTH 4 0
BBX 1 13 1 -3
BITMAP
80
80
80
80
80
80
80
80
80
80
80
80
80
ENDCHAR
STARTCHAR uni01C2
ENCODING 450
SWIDTH 633 0
DWIDTH 9 0
BBX 8 13 0 -2
BITMAP
08
08
08
08
08
FF
08
08
FF
08
08
08
08
ENDCHAR
STARTCHAR uni01C3
ENCODING 451
SWIDTH 205 0
DWIDTH 4 0
BBX 1 10 2 0
BITMAP
80
80
80
80
80
80
80
00
00
80
ENDCHAR
STARTCHAR uni01CD
ENCODING 461
SWIDTH 690 0
DWIDTH 10 0
BBX 9 12 0 0
BITMAP
3E00
0000
0800
1400
1400
1400
2200
2200
7F00
4100
4100
8080
ENDCHAR
STARTCHAR uni01CE
ENCODING 462
SWIDTH 552 0
DWIDTH 8 0
BBX 7 9 1 0
BITMAP
7C
00
7C
44
04
7C
84
84
7E
ENDCHAR
STARTCHAR uni01CF
ENCODING 463
SWIDTH 288 0
DWIDTH 4 0
BBX 5 12 0 0
BITMAP
F8
00
20
20
20
20
20
20
20
20
20
20
ENDCHAR
STARTCHAR uni01D0
ENCODING 464
SWIDTH 289 0
DWIDTH 4 0
BBX 5 9 0 0
BITMAP
F8
00
20
20
20
20
20
20
20
ENDCHAR
STARTCHAR uni01D1
ENCODING 465
SWIDTH 777 0
DWIDTH 11 0
BBX 9 12 1 0
BITMAP
3E00
0000
3E00
6300
4100
8080
8080
8080
8080
4100
6300
3E00
ENDCHAR
STARTCHAR uni01D2
ENCODING 466
SWIDTH 614 0
DWIDTH 9 0
BBX 7 9 1 0
BITMAP
7C
00
38
44
82
82
82
44
38
ENDCHAR
STARTCHAR uni01D3
ENCODING 467
SWIDTH 693 0
DWIDTH 10 0
BBX 7 12 1 0
BITMAP
7C
00
82
82
82
82
82
82
82
82
C6
7C
ENDCHAR
STARTCHAR uni01D4
ENCODING 468
SWIDTH 620 0
DWIDTH 9 0
BBX 6 9 1 0
BITMAP
7C
00
84
84
84
84
84
8C
74
ENDCHAR
STARTCHAR uni01D5
ENCODING 469
SWIDTH 693 0
DWIDTH 10 0
BBX 7 14 1 0
BITMAP
78
00
48
00
82
82
82
82
82
82
82
82
C6
7C
ENDCHAR
STARTCHAR uni01D6
ENCODING 470
SWIDTH 620 0
DWIDTH 9 0
BBX 6 11 1 0
BITMAP
78
00
48
00
84
84
84
84
84
8C
74
ENDCHAR
STARTCHAR uni01D7
ENCODING 471
SWIDTH 693 0
DWIDTH 10 0
BBX 7 14 1 0
BITMAP
38
00
48
00
82
82
82
82
82
82
82
82
C6
7C
ENDCHAR
STARTCHAR uni01D8
ENCODING 472
SWIDTH 620 0
DWIDTH 9 0
BBX 6 11 1 0
BITMAP
38
00
48
00
84
84
84
84
84
8C
74
ENDCHAR
STARTCHAR uni01D9
ENCODING 473
SWIDTH 693 0
DWIDTH 10 0
BBX 7 14 1 0
BITMAP
7C
00
48
00
82
82
82
82
82
82
82
82
C6
7C
ENDCHAR
STARTCHAR uni01DA
ENCODING 474
SWIDTH 620 0
DWIDTH 9 0
BBX 6 11 1 0
BITMAP
7C
00
48
00
84
84
84
84
84
8C
74
ENDCHAR
STARTCHAR uni01DB
ENCODING 475
SWIDTH 693 0
DWIDTH 10 0
BBX 7 14 1 0
BITMAP
38
00
48
00
82
82
82
82
82
82
82
82
C6
7C
ENDCHAR
STARTCHAR uni01DC
ENCODING 476
SWIDTH 620 0
DWIDTH 9 0
BBX 6 11 1 0
BITMAP
38
00
48
00
84
84
84
84
84
8C
74
ENDCHAR
STARTCHAR uni01DD
ENCODING 477
SWIDTH 557 0
DWIDTH 8 0
BBX 6 7 1 0
BITMAP
F0
08
04
FC
84
88
78
ENDCHAR
STARTCHAR uni01DE
ENCODING 478
SWIDTH 690 0
DWIDTH 10 0
BBX 9 14 0 0
BITMAP
1E00
0000
1200
0000
0800
1400
1400
1400
2200
2200
7F00
4100
4100
8080
ENDCHAR
STARTCHAR uni01DF
ENCODING 479
SWIDTH 552 0
DWIDTH 8 0
BBX 7 11 1 0
BITMAP
78
00
48
00
7C
44
04
7C
84
84
7E
ENDCHAR
STARTCHAR uni01E0
ENCODING 480
SWIDTH 690 0
DWIDTH 10 0
BBX 9 14 0 0
BITMAP
1E00
0000
0800
0000
0800
1400
1400
1400
2200
2200
7F00
4100
4100
8080
ENDCHAR
STARTCHAR uni01E1
ENCODING 481
SWIDTH 552 0
DWIDTH 8 0
BBX 7 11 1 0
BITMAP
3C
00
10
00
7C
44
04
7C
84
84
7E
ENDCHAR
STARTCHAR uni01E2
ENCODING 482
SWIDTH 907 0
DWIDTH 13 0
BBX 12 12 0 0
BITMAP
0780
0000
07F0
0600
0A00
0A00
13E0
1200
3E00
6200
4200
C3F0
ENDCHAR
STARTCHAR uni01E3
ENCODING 483
SWIDTH 853 0
DWIDTH 12 0
BBX 9 9 1 0
BITMAP
1E00
0000
7700
4C80
0880
7F80
8800
8C00
7780
ENDCHAR
STARTCHAR uni01E4
ENCODING 484
SWIDTH 723 0
DWIDTH 10 0
BBX 8 10 1 0
BITMAP
1F
61
40
80
80
81
81
CF
61
3F
ENDCHAR
STARTCHAR uni01E5
ENCODING 485
SWIDTH 623 0
DWIDTH 9 0
BBX 7 10 1 -3
BITMAP
3A
46
82
82
82
C6
7A
FE
42
7C
ENDCHAR
STARTCHAR Gcaron
ENCODING 486
SWIDTH 723 0
DWIDTH 10 0
BBX 8 12 1 0
BITMAP
3E
00
1F
61
40
80
80
81
81
C1
61
3F
ENDCHAR
STARTCHAR gcaron
ENCODING 487
SWIDTH 623 0
DWIDTH 9 0
BBX 7 12 1 -3
BITMAP
7C
00
3A
46
82
82
82
C6
7A
02
42
7C
ENDCHAR
STARTCHAR uni01E8
ENCODING 488
SWIDTH 653 0
DWIDTH 9 0
BBX 8 12 1 0
BITMAP
7C
00
86
8C
98
B0
A0
E0
90
88
84
83
ENDCHAR
STARTCHAR uni01E9
ENCODING 489
SWIDTH 585 0
DWIDTH 8 0
BBX 7 12 1 0
BITMAP
F8
00
40
40
40
44
48
50
60
50
48
46
ENDCHAR
STARTCHAR uni01EA
ENCODING 490
SWIDTH 777 0
DWIDTH 11 0
BBX 9 13 1 -3
BITMAP
3E00
6300
4100
8080
8080
8080
8080
4100
6300
3E00
0000
0000
0C00
ENDCHAR
STARTCHAR uni01EB
ENCODING 491
SWIDTH 614 0
DWIDTH 9 0
BBX 7 10 1 -3
BITMAP
38
44
82
82
82
44
38
00
00
18
ENDCHAR
STARTCHAR uni01EC
ENCODING 492
SWIDTH 777 0
DWIDTH 11 0
BBX 9 15 1 -3
BITMAP
1E00
0000
3E00
6300
4100
8080
8080
8080
8080
4100
6300
3E00
0000
0000
0C00
ENDCHAR
STARTCHAR uni01ED
ENCODING 493
SWIDTH 614 0
DWIDTH 9 0
BBX 7 12 1 -3
BITMAP
3C
00
38
44
82
82
82
44
38
00
00
18
ENDCHAR
STARTCHAR uni01F0
ENCODING 496
SWIDTH 304 0
DWIDTH 4 0
BBX 6 12 0 -3
BITMAP
7C
00
10
10
10
10
10
10
10
10
10
E0
ENDCHAR
STARTCHAR uni01F4
ENCODING 500
SWIDTH 723 0
DWIDTH 10 0
BBX 8 12 1 0
BITMAP
1C
00
1F
61
40
80
80
81
81
C1
61
3F
ENDCHAR
STARTCHAR uni01F5
ENCODING 501
SWIDTH 623 0
DWIDTH 9 0
BBX 7 12 1 -3
BITMAP
38
00
3A
46
82
82
82
C6
7A
02
42
7C
ENDCHAR
STARTCHAR uni01F8
ENCODING 504
SWIDTH 741 0
DWIDTH 10 0
BBX 8 12 1 0
BITMAP
38
00
81
C1
A1
B1
91
89
8D
85
83
81
ENDCHAR
STARTCHAR uni01F9
ENCODING 505
SWIDTH 620 0
DWIDTH 9 0
BBX 6 9 1 0
BITMAP
70
00
B8
C4
84
84
84
84
84
ENDCHAR
STARTCHAR Aringacute
ENCODING 506
SWIDTH 690 0
DWIDTH 10 0
BBX 9 15 0 0
BITMAP
1C00
0000
0C00
1200
0C00
0800
1400
1400
1400
2200
2200
7F00
4100
4100
8080
ENDCHAR
STARTCHAR aringacute
ENCODING 507
SWIDTH 552 0
DWIDTH 8 0
BBX 7 12 1 0
BITMAP
38
00
30
48
00
7C
44
04
7C
84
84
7E
ENDCHAR
STARTCHAR AEacute
ENCODING 508
SWIDTH 907 0
DWIDTH 13 0
BBX 12 12 0 0
BITMAP
0380
0000
07F0
0600
0A00
0A00
13E0
1200
3E00
6200
4200
C3F0
ENDCHAR
STARTCHAR aeacute
ENCODING 509
SWIDTH 853 0
DWIDTH 12 0
BBX 9 9 1 0
BITMAP
1C00
0000
7700
4C80
0880
7F80
8800
8C00
7780
ENDCHAR
STARTCHAR Oslashacute
ENCODING 510
SWIDTH 777 0
DWIDTH 11 0
BBX 9 12 1 0
BITMAP
1C00
0000
3F80
6300
4300
8480
8C80
9880
9080
6100
6300
FE00
ENDCHAR
STARTCHAR oslashacute
ENCODING 511
SWIDTH 614 0
DWIDTH 9 0
BBX 7 9 1 0
BITMAP
38
00
3E
44
8A
92
A2
44
F8
ENDCHAR
STARTCHAR uni0200
ENCODING 512
SWIDTH 690 0
DWIDTH 10 0
BBX 9 12 0 0
BITMAP
1E00
0000
0800
1400
1400
1400
2200
2200
7F00
4100
4100
8080
ENDCHAR
STARTCHAR uni0201
ENCODING 513
SWIDTH 552 0
DWIDTH 8 0
BBX 7 9 1 0
BITMAP
3C
00
7C
44
04
7C
84
84
7E
ENDCHAR
STARTCHAR uni0202
ENCODING 514
SWIDTH 690 0
DWIDTH 10 0
BBX 9 12 0 0
BITMAP
3E00
0000
0800
1400
1400
1400
2200
2200
7F00
4100
4100
8080
ENDCHAR
STARTCHAR uni0203
ENCODING 515
SWIDTH 552 0
DWIDTH 8 0
BBX 7 9 1 0
BITMAP
7C
00
7C
44
04
7C
84
84
7E
ENDCHAR
STARTCHAR uni0204
ENCODING 516
SWIDTH 542 0
DWIDTH 8 0
BBX 6 12 1 0
BITMAP
78
00
FC
80
80
80
F8
80
80
80
80
FC
ENDCHAR
STARTCHAR uni0205
ENCODING 517
SWIDTH 557 0
DWIDTH 8 0
BBX 6 9 1 0
BITMAP
78
00
78
44
84
FC
80
40
3C
ENDCHAR
STARTCHAR uni0206
ENCODING 518
SWIDTH 542 0
DWIDTH 8 0
BBX 6 12 1 0
BITMAP
F8
00
FC
80
80
80
F8
80
80
80
80
FC
ENDCHAR
STARTCHAR uni0207
ENCODING 519
SWIDTH 557 0
DWIDTH 8 0
BBX 6 9 1 0
BITMAP
7C
00
78
44
84
FC
80
40
3C
ENDCHAR
STARTCHAR uni0208
ENCODING 520
SWIDTH 288 0
DWIDTH 4 0
BBX 4 12 1 0
BITMAP
F0
00
40
40
40
40
40
40
40
40
40
40
ENDCHAR
STARTCHAR uni0209
ENCODING 521
SWIDTH 289 0
DWIDTH 4 0
BBX 4 9 1 0
BITMAP
F0
00
40
40
40
40
40
40
40
ENDCHAR
STARTCHAR uni020A
ENCODING 522
SWIDTH 288 0
DWIDTH 4 0
BBX 5 12 0 0
BITMAP
F8
00
20
20
20
20
20
20
20
20
20
20
ENDCHAR
STARTCHAR uni020B
ENCODING 523
SWIDTH 289 0
DWIDTH 4 0
BBX 5 9 0 0
BITMAP
F8
00
20
20
20
20
20
20
20
ENDCHAR
STARTCHAR uni020C
ENCODING 524
SWIDTH 777 0
DWIDTH 11 0
BBX 9 12 1 0
BITMAP
1E00
0000
3E00
6300
4100
8080
8080
8080
8080
4100
6300
3E00
ENDCHAR
STARTCHAR uni020D
ENCODING 525
SWIDTH 614 0
DWIDTH 9 0
BBX 7 9 1 0
BITMAP
3C
00
38
44
82
82
82
44
38
ENDCHAR
STARTCHAR uni020E
ENCODING 526
SWIDTH 777 0
DWIDTH 11 0
BBX 9 12 1 0
BITMAP
3E00
0000
3E00
6300
4100
8080
8080
8080
8080
4100
6300
3E00
ENDCHAR
STARTCHAR uni020F
ENCODING 527
SWIDTH 614 0
DWIDTH 9 0
BBX 7 9 1 0
BITMAP
7C
00
38
44
82
82
82
44
38
ENDCHAR
STARTCHAR uni0210
ENCODING 528
SWIDTH 633 0
DWIDTH 9 0
BBX 6 12 2 0
BITMAP
78
00
F8
84
84
84
88
F0
98
88
84
84
ENDCHAR
STARTCHAR uni0211
ENCODING 529
SWIDTH 409 0
DWIDTH 6 0
BBX 4 9 1 0
BITMAP
F0
00
B0
C0
80
80
80
80
80
ENDCHAR
STARTCHAR uni0212
ENCODING 530
SWIDTH 633 0
DWIDTH 9 0
BBX 6 12 2 0
BITMAP
F8
00
F8
84
84
84
88
F0
98
88
84
84
ENDCHAR
STARTCHAR uni0213
ENCODING 531
SWIDTH 409 0
DWIDTH 6 0
BBX 5 9 0 0
BITMAP
F8
00
58
60
40
40
40
40
40
ENDCHAR
STARTCHAR uni0214
ENCODING 532
SWIDTH 693 0
DWIDTH 10 0
BBX 7 12 1 0
BITMAP
3C
00
82
82
82
82
82
82
82
82
C6
7C
ENDCHAR
STARTCHAR uni0215
ENCODING 533
SWIDTH 620 0
DWIDTH 9 0
BBX 6 9 1 0
BITMAP
78
00
84
84
84
84
84
8C
74
ENDCHAR
STARTCHAR uni0216
ENCODING 534
SWIDTH 693 0
DWIDTH 10 0
BBX 7 12 1 0
BITMAP
7C
00
82
82
82
82
82
82
82
82
C6
7C
ENDCHAR
STARTCHAR uni0217
ENCODING 535
SWIDTH 620 0
DWIDTH 9 0
BBX 6 9 1 0
BITMAP
7C
00
84
84
84
84
84
8C
74
ENDCHAR
STARTCHAR Scommaaccent
ENCODING 536
SWIDTH 539 0
DWIDTH 8 0
BBX 6 16 1 -6
BITMAP
78
88
80
C0
60
18
04
04
8C
F8
00
30
30
10
10
20
ENDCHAR
STARTCHAR scommaaccent
ENCODING 537
SWIDTH 510 0
DWIDTH 7 0
BBX 5 13 1 -6
BITMAP
70
80
C0
70
08
88
F0
00
60
60
20
20
40
ENDCHAR
STARTCHAR Tcommaaccent
ENCODING 538
SWIDTH 633 0
DWIDTH 9 0
BBX 9 16 0 -6
BITMAP
FF80
0800
0800
0800
0800
0800
0800
0800
0800
0800
0000
0C00
0C00
0400
0400
0800
ENDCHAR
STARTCHAR tcommaaccent
ENCODING 539
SWIDTH 374 0
DWIDTH 5 0
BBX 4 15 1 -6
BITMAP
40
40
F0
40
40
40
40
40
30
00
60
60
20
20
40
ENDCHAR
STARTCHAR uni021E
ENCODING 542
SWIDTH 735 0
DWIDTH 10 0
BBX 8 12 1 0
BITMAP
3E
00
81
81
81
81
FF
81
81
81
81
81
ENDCHAR
STARTCHAR uni021F
ENCODING 543
SWIDTH 620 0
DWIDTH 9 0
BBX 7 12 0 0
BITMAP
F8
00
40
40
40
5C
62
42
42
42
42
42
ENDCHAR
STARTCHAR uni0226
ENCODING 550
SWIDTH 690 0
DWIDTH 10 0
BBX 9 12 0 0
BITMAP
0800
0000
0800
1400
1400
1400
2200
2200
7F00
4100
4100
8080
ENDCHAR
STARTCHAR uni0227
ENCODING 551
SWIDTH 552 0
DWIDTH 8 0
BBX 7 9 1 0
BITMAP
10
00
7C
44
04
7C
84
84
7E
ENDCHAR
STARTCHAR uni0228
ENCODING 552
SWIDTH 542 0
DWIDTH 8 0
BBX 6 13 1 -3
BITMAP
FC
80
80
80
F8
80
80
80
80
FC
30
10
30
ENDCHAR
STARTCHAR uni0229
ENCODING 553
SWIDTH 557 0
DWIDTH 8 0
BBX 6 10 1 -3
BITMAP
78
44
84
FC
80
40
3C
30
10
30
ENDCHAR
STARTCHAR uni022A
ENCODING 554
SWIDTH 777 0
DWIDTH 11 0
BBX 9 14 1 0
BITMAP
1E00
0000
1200
0000
3E00
6300
4100
8080
8080
8080
8080
4100
6300
3E00
ENDCHAR
STARTCHAR uni022B
ENCODING 555
SWIDTH 614 0
DWIDTH 9 0
BBX 7 11 1 0
BITMAP
78
00
48
00
38
44
82
82
82
44
38
ENDCHAR
STARTCHAR uni022C
ENCODING 556
SWIDTH 777 0
DWIDTH 11 0
BBX 9 14 1 0
BITMAP
1E00
0000
3E00
0000
3E00
6300
4100
8080
8080
8080
8080
4100
6300
3E00
ENDCHAR
STARTCHAR uni022D
ENCODING 557
SWIDTH 614 0
DWIDTH 9 0
BBX 7 11 1 0
BITMAP
3C
00
7C
00
38
44
82
82
82
44
38
ENDCHAR
STARTCHAR uni022E
ENCODING 558
SWIDTH 777 0
DWIDTH 11 0
BBX 9 12 1 0
BITMAP
0800
0000
3E00
6300
4100
8080
8080
8080
8080
4100
6300
3E00
ENDCHAR
STARTCHAR uni022F
ENCODING 559
SWIDTH 614 0
DWIDTH 9 0
BBX 7 9 1 0
BITMAP
10
00
38
44
82
82
82
44
38
ENDCHAR
STARTCHAR uni0230
ENCODING 560
SWIDTH 777 0
DWIDTH 11 0
BBX 9 14 1 0
BITMAP
1E00
0000
0800
0000
3E00
6300
4100
8080
8080
8080
8080
4100
6300
3E00
ENDCHAR
STARTCHAR uni0231
ENCODING 561
SWIDTH 614 0
DWIDTH 9 0
BBX 7 11 1 0
BITMAP
3C
00
10
00
38
44
82
82
82
44
38
ENDCHAR
STARTCHAR uni0232
ENCODING 562
SWIDTH 623 0
DWIDTH 9 0
BBX 8 12 0 0
BITMAP
3C
00
C3
42
24
24
18
10
10
10
10
10
ENDCHAR
STARTCHAR uni0233
ENCODING 563
SWIDTH 568 0
DWIDTH 7 0
BBX 7 12 0 -3
BITMAP
3C
00
82
44
44
2C
28
28
10
10
30
20
ENDCHAR
STARTCHAR uni0250
ENCODING 592
SWIDTH 552 0
DWIDTH 8 0
BBX 7 7 1 0
BITMAP
FC
42
42
7C
40
44
7C
ENDCHAR
STARTCHAR uni0254
ENCODING 596
SWIDTH 518 0
DWIDTH 7 0
BBX 5 7 1 0
BITMAP
F0
18
08
08
08
18
F0
ENDCHAR
STARTCHAR uni0258
ENCODING 600
SWIDTH 557 0
DWIDTH 8 0
BBX 6 7 1 0
BITMAP
78
88
84
FC
04
08
F0
ENDCHAR
STARTCHAR uni0259
ENCODING 601
SWIDTH 557 0
DWIDTH 8 0
BBX 6 7 1 0
BITMAP
F0
08
04
FC
84
88
78
ENDCHAR
STARTCHAR uni025F
ENCODING 607
SWIDTH 367 0
DWIDTH 5 0
BBX 5 11 1 -4
BITMAP
10
10
10
10
10
10
78
10
10
10
E0
ENDCHAR
STARTCHAR uni0265
ENCODING 613
SWIDTH 620 0
DWIDTH 9 0
BBX 6 10 1 -3
BITMAP
84
84
84
84
84
8C
74
04
04
04
ENDCHAR
STARTCHAR uni0275
ENCODING 629
SWIDTH 614 0
DWIDTH 9 0
BBX 7 7 1 0
BITMAP
38
44
82
FE
82
44
38
ENDCHAR
STARTCHAR uni0279
ENCODING 633
SWIDTH 409 0
DWIDTH 6 0
BBX 4 7 1 0
BITMAP
10
10
10
10
10
30
D0
ENDCHAR
STARTCHAR uni0287
ENCODING 647
SWIDTH 374 0
DWIDTH 5 0
BBX 4 9 1 0
BITMAP
C0
20
20
20
20
20
F0
20
20
ENDCHAR
STARTCHAR uni0288
ENCODING 648
SWIDTH 374 0
DWIDTH 5 0
BBX 5 12 1 -3
BITMAP
40
40
F0
40
40
40
40
40
40
40
40
38
ENDCHAR
STARTCHAR uni0289
ENCODING 649
SWIDTH 620 0
DWIDTH 9 0
BBX 6 7 1 0
BITMAP
84
84
84
FC
84
8C
74
ENDCHAR
STARTCHAR uni028C
ENCODING 652
SWIDTH 572 0
DWIDTH 7 0
BBX 7 7 0 0
BITMAP
10
28
28
2C
44
44
82
ENDCHAR
STARTCHAR uni028D
ENCODING 653
SWIDTH 840 0
DWIDTH 11 0
BBX 11 7 0 0
BITMAP
3180
3180
2980
4A40
4A40
4A40
8420
ENDCHAR
STARTCHAR uni028E
ENCODING 654
SWIDTH 568 0
DWIDTH 7 0
BBX 7 10 0 0
BITMAP
08
18
10
10
28
28
68
44
44
82
ENDCHAR
STARTCHAR uni029E
ENCODING 670
SWIDTH 585 0
DWIDTH 8 0
BBX 6 10 2 -3
BITMAP
C4
24
14
0C
14
24
44
04
04
04
ENDCHAR
STARTCHAR uni02BB
ENCODING 699
SWIDTH 229 0
DWIDTH 3 0
BBX 2 3 1 7
BITMAP
C0
80
C0
ENDCHAR
STARTCHAR afii57929
ENCODING 700
SWIDTH 229 0
DWIDTH 3 0
BBX 2 3 1 7
BITMAP
C0
40
C0
ENDCHAR
STARTCHAR afii64937
ENCODING 701
SWIDTH 229 0
DWIDTH 3 0
BBX 2 3 1 7
BITMAP
C0
80
C0
ENDCHAR
STARTCHAR circumflex
ENCODING 710
SWIDTH 614 0
DWIDTH 9 0
BBX 5 1 2 9
BITMAP
F8
ENDCHAR
STARTCHAR caron
ENCODING 711
SWIDTH 614 0
DWIDTH 9 0
BBX 5 1 2 9
BITMAP
F8
ENDCHAR
STARTCHAR uni02C8
ENCODING 712
SWIDTH 229 0
DWIDTH 3 0
BBX 1 3 1 7
BITMAP
80
80
80
ENDCHAR
STARTCHAR macron
ENCODING 713
SWIDTH 614 0
DWIDTH 9 0
BBX 4 1 2 9
BITMAP
F0
ENDCHAR
STARTCHAR uni02CA
ENCODING 714
SWIDTH 614 0
DWIDTH 9 0
BBX 3 1 3 9
BITMAP
E0
ENDCHAR
STARTCHAR uni02CB
ENCODING 715
SWIDTH 614 0
DWIDTH 9 0
BBX 3 1 2 9
BITMAP
E0
ENDCHAR
STARTCHAR uni02CD
ENCODING 717
SWIDTH 614 0
DWIDTH 9 0
BBX 4 1 2 -2
BITMAP
F0
ENDCHAR
STARTCHAR uni02CE
ENCODING 718
SWIDTH 614 0
DWIDTH 9 0
BBX 3 1 2 -2
BITMAP
E0
ENDCHAR
STARTCHAR uni02CF
ENCODING 719
SWIDTH 614 0
DWIDTH 9 0
BBX 3 1 3 -2
BITMAP
E0
ENDCHAR
STARTCHAR breve
ENCODING 728
SWIDTH 614 0
DWIDTH 9 0
BBX 5 1 2 9
BITMAP
F8
ENDCHAR
STARTCHAR dotaccent
ENCODING 729
SWIDTH 614 0
DWIDTH 9 0
BBX 1 1 4 9
BITMAP
80
ENDCHAR
STARTCHAR ring
ENCODING 730
SWIDTH 614 0
DWIDTH 9 0
BBX 4 3 4 9
BITMAP
60
90
60
ENDCHAR
STARTCHAR ogonek
ENCODING 731
SWIDTH 614 0
DWIDTH 9 0
BBX 2 1 4 -3
BITMAP
C0
ENDCHAR
STARTCHAR tilde
ENCODING 732
SWIDTH 614 0
DWIDTH 9 0
BBX 5 1 2 9
BITMAP
F8
ENDCHAR
STARTCHAR hungarumlaut
ENCODING 733
SWIDTH 614 0
DWIDTH 9 0
BBX 4 1 3 9
BITMAP
F0
ENDCHAR
STARTCHAR uni02EE
ENCODING 750
SWIDTH 373 0
DWIDTH 5 0
BBX 3 3 1 7
BITMAP
A0
A0
A0
ENDCHAR
STARTCHAR uni037E
ENCODING 894
SWIDTH 316 0
DWIDTH 4 0
BBX 1 10 2 -3
BITMAP
80
00
00
00
00
00
80
80
80
80
ENDCHAR
STARTCHAR tonos
ENCODING 900
SWIDTH 614 0
DWIDTH 9 0
BBX 3 1 3 9
BITMAP
E0
ENDCHAR
STARTCHAR dieresistonos
ENCODING 901
SWIDTH 614 0
DWIDTH 9 0
BBX 4 3 2 9
BITMAP
70
00
90
ENDCHAR
STARTCHAR anoteleia
ENCODING 903
SWIDTH 316 0
DWIDTH 9 0
BBX 2 1 3 4
BITMAP
C0
ENDCHAR
STARTCHAR mu
ENCODING 956
SWIDTH 627 0
DWIDTH 9 0
BBX 6 10 1 -3
BITMAP
84
84
84
84
84
8C
F4
80
80
80
ENDCHAR
STARTCHAR uni1E00
ENCODING 7680
SWIDTH 690 0
DWIDTH 10 0
BBX 9 14 0 -4
BITMAP
0800
1400
1400
1400
2200
2200
7F00
4100
4100
8080
0000
0C00
1200
0C00
ENDCHAR
STARTCHAR uni1E01
ENCODING 7681
SWIDTH 552 0
DWIDTH 8 0
BBX 7 11 1 -4
BITMAP
7C
44
04
7C
84
84
7E
00
18
24
18
ENDCHAR
STARTCHAR uni1E02
ENCODING 7682
SWIDTH 575 0
DWIDTH 8 0
BBX 6 12 1 0
BITMAP
20
00
F8
84
84
8C
F8
88
84
84
84
F8
ENDCHAR
STARTCHAR uni1E03
ENCODING 7683
SWIDTH 630 0
DWIDTH 9 0
BBX 7 12 1 0
BITMAP
40
00
80
80
80
BC
C6
82
82
82
C4
B8
ENDCHAR
STARTCHAR uni1E04
ENCODING 7684
SWIDTH 575 0
DWIDTH 8 0
BBX 6 12 1 -2
BITMAP
F8
84
84
8C
F8
88
84
84
84
F8
00
20
ENDCHAR
STARTCHAR uni1E05
ENCODING 7685
SWIDTH 630 0
DWIDTH 9 0
BBX 7 12 1 -2
BITMAP
80
80
80
BC
C6
82
82
82
C4
B8
00
10
ENDCHAR
STARTCHAR uni1E06
ENCODING 7686
SWIDTH 575 0
DWIDTH 8 0
BBX 6 12 1 -2
BITMAP
F8
84
84
8C
F8
88
84
84
84
F8
00
78
ENDCHAR
STARTCHAR uni1E07
ENCODING 7687
SWIDTH 630 0
DWIDTH 9 0
BBX 7 12 1 -2
BITMAP
80
80
80
BC
C6
82
82
82
C4
B8
00
78
ENDCHAR
STARTCHAR uni1E08
ENCODING 7688
SWIDTH 692 0
DWIDTH 10 0
BBX 8 15 1 -3
BITMAP
1C
00
1F
61
40
80
80
80
80
40
61
1E
08
08
18
ENDCHAR
STARTCHAR uni1E09
ENCODING 7689
SWIDTH 518 0
DWIDTH 7 0
BBX 5 12 1 -3
BITMAP
70
00
78
C0
80
80
80
C0
78
10
10
30
ENDCHAR
STARTCHAR uni1E0A
ENCODING 7690
SWIDTH 749 0
DWIDTH 10 0
BBX 8 12 2 0
BITMAP
10
00
FC
86
83
81
81
81
81
81
82
FC
ENDCHAR
STARTCHAR uni1E0B
ENCODING 7691
SWIDTH 630 0
DWIDTH 9 0
BBX 7 12 1 0
BITMAP
04
00
02
02
02
3A
46
82
82
82
C6
7A
ENDCHAR
STARTCHAR uni1E0C
ENCODING 7692
SWIDTH 749 0
DWIDTH 10 0
BBX 8 12 2 -2
BITMAP
FC
86
83
81
81
81
81
81
82
FC
00
10
ENDCHAR
STARTCHAR uni1E0D
ENCODING 7693
SWIDTH 630 0
DWIDTH 9 0
BBX 7 12 1 -2
BITMAP
02
02
02
3A
46
82
82
82
C6
7A
00
10
ENDCHAR
STARTCHAR uni1E0E
ENCODING 7694
SWIDTH 749 0
DWIDTH 10 0
BBX 8 12 2 -2
BITMAP
FC
86
83
81
81
81
81
81
82
FC
00
3C
ENDCHAR
STARTCHAR uni1E0F
ENCODING 7695
SWIDTH 630 0
DWIDTH 9 0
BBX 7 12 1 -2
BITMAP
02
02
02
3A
46
82
82
82
C6
7A
00
3C
ENDCHAR
STARTCHAR uni1E10
ENCODING 7696
SWIDTH 749 0
DWIDTH 10 0
BBX 8 13 2 -3
BITMAP
FC
86
83
81
81
81
81
81
82
FC
18
08
18
ENDCHAR
STARTCHAR uni1E11
ENCODING 7697
SWIDTH 630 0
DWIDTH 9 0
BBX 7 13 1 -3
BITMAP
02
02
02
3A
46
82
82
82
C6
7A
18
08
18
ENDCHAR
STARTCHAR uni1E12
ENCODING 7698
SWIDTH 749 0
DWIDTH 10 0
BBX 8 12 2 -2
BITMAP
FC
86
83
81
81
81
81
81
82
FC
00
7C
ENDCHAR
STARTCHAR uni1E13
ENCODING 7699
SWIDTH 630 0
DWIDTH 9 0
BBX 7 12 1 -2
BITMAP
02
02
02
3A
46
82
82
82
C6
7A
00
7C
ENDCHAR
STARTCHAR uni1E14
ENCODING 7700
SWIDTH 542 0
DWIDTH 8 0
BBX 6 14 1 0
BITMAP
70
00
78
00
FC
80
80
80
F8
80
80
80
80
FC
ENDCHAR
STARTCHAR uni1E15
ENCODING 7701
SWIDTH 557 0
DWIDTH 8 0
BBX 6 11 1 0
BITMAP
38
00
78
00
78
44
84
FC
80
40
3C
ENDCHAR
STARTCHAR uni1E16
ENCODING 7702
SWIDTH 542 0
DWIDTH 8 0
BBX 6 14 1 0
BITMAP
70
00
78
00
FC
80
80
80
F8
80
80
80
80
FC
ENDCHAR
STARTCHAR uni1E17
ENCODING 7703
SWIDTH 557 0
DWIDTH 8 0
BBX 6 11 1 0
BITMAP
38
00
78
00
78
44
84
FC
80
40
3C
ENDCHAR
STARTCHAR uni1E18
ENCODING 7704
SWIDTH 542 0
DWIDTH 8 0
BBX 6 12 1 -2
BITMAP
FC
80
80
80
F8
80
80
80
80
FC
00
F8
ENDCHAR
STARTCHAR uni1E19
ENCODING 7705
SWIDTH 557 0
DWIDTH 8 0
BBX 6 9 1 -2
BITMAP
78
44
84
FC
80
40
3C
00
7C
ENDCHAR
STARTCHAR uni1E1A
ENCODING 7706
SWIDTH 542 0
DWIDTH 8 0
BBX 6 12 1 -2
BITMAP
FC
80
80
80
F8
80
80
80
80
FC
00
F8
ENDCHAR
STARTCHAR uni1E1B
ENCODING 7707
SWIDTH 557 0
DWIDTH 8 0
BBX 6 9 1 -2
BITMAP
78
44
84
FC
80
40
3C
00
7C
ENDCHAR
STARTCHAR uni1E1C
ENCODING 7708
SWIDTH 542 0
DWIDTH 8 0
BBX 6 15 1 -3
BITMAP
F8
00
FC
80
80
80
F8
80
80
80
80
FC
30
10
30
ENDCHAR
STARTCHAR uni1E1D
ENCODING 7709
SWIDTH 557 0
DWIDTH 8 0
BBX 6 12 1 -3
BITMAP
7C
00
78
44
84
FC
80
40
3C
30
10
30
ENDCHAR
STARTCHAR uni1E1E
ENCODING 7710
SWIDTH 536 0
DWIDTH 8 0
BBX 5 12 2 0
BITMAP
20
00
F8
80
80
80
F0
80
80
80
80
80
ENDCHAR
STARTCHAR uni1E1F
ENCODING 7711
SWIDTH 367 0
DWIDTH 5 0
BBX 5 13 1 0
BITMAP
20
00
38
40
40
40
F0
40
40
40
40
40
40
ENDCHAR
STARTCHAR uni1E20
ENCODING 7712
SWIDTH 723 0
DWIDTH 10 0
BBX 8 12 1 0
BITMAP
3C
00
1F
61
40
80
80
81
81
C1
61
3F
ENDCHAR
STARTCHAR uni1E21
ENCODING 7713
SWIDTH 623 0
DWIDTH 9 0
BBX 7 12 1 -3
BITMAP
3C
00
3A
46
82
82
82
C6
7A
02
42
7C
ENDCHAR
STARTCHAR uni1E22
ENCODING 7714
SWIDTH 735 0
DWIDTH 10 0
BBX 8 12 1 0
BITMAP
08
00
81
81
81
81
FF
81
81
81
81
81
ENDCHAR
STARTCHAR uni1E23
ENCODING 7715
SWIDTH 620 0
DWIDTH 9 0
BBX 6 12 1 0
BITMAP
40
00
80
80
80
B8
C4
84
84
84
84
84
ENDCHAR
STARTCHAR uni1E24
ENCODING 7716
SWIDTH 735 0
DWIDTH 10 0
BBX 8 12 1 -2
BITMAP
81
81
81
81
FF
81
81
81
81
81
00
08
ENDCHAR
STARTCHAR uni1E25
ENCODING 7717
SWIDTH 620 0
DWIDTH 9 0
BBX 6 12 1 -2
BITMAP
80
80
80
B8
C4
84
84
84
84
84
00
10
ENDCHAR
STARTCHAR uni1E26
ENCODING 7718
SWIDTH 735 0
DWIDTH 10 0
BBX 8 12 1 0
BITMAP
24
00
81
81
81
81
FF
81
81
81
81
81
ENDCHAR
STARTCHAR uni1E27
ENCODING 7719
SWIDTH 620 0
DWIDTH 9 0
BBX 7 12 0 0
BITMAP
90
00
40
40
40
5C
62
42
42
42
42
42
ENDCHAR
STARTCHAR uni1E28
ENCODING 7720
SWIDTH 735 0
DWIDTH 10 0
BBX 8 13 1 -3
BITMAP
81
81
81
81
FF
81
81
81
81
81
18
08
18
ENDCHAR
STARTCHAR uni1E29
ENCODING 7721
SWIDTH 620 0
DWIDTH 9 0
BBX 6 13 1 -3
BITMAP
80
80
80
B8
C4
84
84
84
84
84
30
10
30
ENDCHAR
STARTCHAR uni1E2A
ENCODING 7722
SWIDTH 735 0
DWIDTH 10 0
BBX 8 12 1 -2
BITMAP
81
81
81
81
FF
81
81
81
81
81
00
3E
ENDCHAR
STARTCHAR uni1E2B
ENCODING 7723
SWIDTH 620 0
DWIDTH 9 0
BBX 6 12 1 -2
BITMAP
80
80
80
B8
C4
84
84
84
84
84
00
7C
ENDCHAR
STARTCHAR uni1E2C
ENCODING 7724
SWIDTH 288 0
DWIDTH 4 0
BBX 5 12 0 -2
BITMAP
20
20
20
20
20
20
20
20
20
20
00
F8
ENDCHAR
STARTCHAR uni1E2D
ENCODING 7725
SWIDTH 289 0
DWIDTH 4 0
BBX 5 12 0 -2
BITMAP
20
00
00
20
20
20
20
20
20
20
00
F8
ENDCHAR
STARTCHAR uni1E2E
ENCODING 7726
SWIDTH 288 0
DWIDTH 4 0
BBX 4 14 4 0
BITMAP
70
00
90
00
20
20
20
20
20
20
20
20
20
20
ENDCHAR
STARTCHAR uni1E2F
ENCODING 7727
SWIDTH 289 0
DWIDTH 4 0
BBX 4 11 4 0
BITMAP
70
00
90
00
20
20
20
20
20
20
20
ENDCHAR
STARTCHAR uni1E30
ENCODING 7728
SWIDTH 653 0
DWIDTH 9 0
BBX 8 12 1 0
BITMAP
38
00
86
8C
98
B0
A0
E0
90
88
84
83
ENDCHAR
STARTCHAR uni1E31
ENCODING 7729
SWIDTH 585 0
DWIDTH 8 0
BBX 6 12 2 0
BITMAP
E0
00
80
80
80
88
90
A0
C0
A0
90
8C
ENDCHAR
STARTCHAR uni1E32
ENCODING 7730
SWIDTH 653 0
DWIDTH 9 0
BBX 8 12 1 -2
BITMAP
86
8C
98
B0
A0
E0
90
88
84
83
00
10
ENDCHAR
STARTCHAR uni1E33
ENCODING 7731
SWIDTH 585 0
DWIDTH 8 0
BBX 6 12 2 -2
BITMAP
80
80
80
88
90
A0
C0
A0
90
8C
00
20
ENDCHAR
STARTCHAR uni1E34
ENCODING 7732
SWIDTH 653 0
DWIDTH 9 0
BBX 8 12 1 -2
BITMAP
86
8C
98
B0
A0
E0
90
88
84
83
00
3C
ENDCHAR
STARTCHAR uni1E35
ENCODING 7733
SWIDTH 585 0
DWIDTH 8 0
BBX 6 12 2 -2
BITMAP
80
80
80
88
90
A0
C0
A0
90
8C
00
78
ENDCHAR
STARTCHAR uni1E36
ENCODING 7734
SWIDTH 533 0
DWIDTH 7 0
BBX 6 12 1 -2
BITMAP
80
80
80
80
80
80
80
80
80
FC
00
20
ENDCHAR
STARTCHAR uni1E37
ENCODING 7735
SWIDTH 289 0
DWIDTH 4 0
BBX 1 12 2 -2
BITMAP
80
80
80
80
80
80
80
80
80
80
00
80
ENDCHAR
STARTCHAR uni1E38
ENCODING 7736
SWIDTH 533 0
DWIDTH 7 0
BBX 7 14 0 -2
BITMAP
F0
00
40
40
40
40
40
40
40
40
40
7E
00
10
ENDCHAR
STARTCHAR uni1E39
ENCODING 7737
SWIDTH 289 0
DWIDTH 4 0
BBX 4 14 1 -2
BITMAP
F0
00
40
40
40
40
40
40
40
40
40
40
00
40
ENDCHAR
STARTCHAR uni1E3A
ENCODING 7738
SWIDTH 533 0
DWIDTH 7 0
BBX 6 12 1 -2
BITMAP
80
80
80
80
80
80
80
80
80
FC
00
78
ENDCHAR
STARTCHAR uni1E3B
ENCODING 7739
SWIDTH 289 0
DWIDTH 4 0
BBX 4 12 1 -2
BITMAP
40
40
40
40
40
40
40
40
40
40
00
F0
ENDCHAR
STARTCHAR uni1E3C
ENCODING 7740
SWIDTH 533 0
DWIDTH 7 0
BBX 6 12 1 -2
BITMAP
80
80
80
80
80
80
80
80
80
FC
00
F8
ENDCHAR
STARTCHAR uni1E3D
ENCODING 7741
SWIDTH 289 0
DWIDTH 4 0
BBX 5 12 0 -2
BITMAP
20
20
20
20
20
20
20
20
20
20
00
F8
ENDCHAR
STARTCHAR uni1E3E
ENCODING 7742
SWIDTH 861 0
DWIDTH 12 0
BBX 9 12 2 0
BITMAP
1C00
0000
C180
C180
E380
A280
A280
9480
9480
9480
8880
8080
ENDCHAR
STARTCHAR uni1E3F
ENCODING 7743
SWIDTH 934 0
DWIDTH 13 0
BBX 11 9 1 0
BITMAP
0E00
0000
B9C0
C620
8420
8420
8420
8420
8420
ENDCHAR
STARTCHAR uni1E40
ENCODING 7744
SWIDTH 861 0
DWIDTH 12 0
BBX 9 12 2 0
BITMAP
0800
0000
C180
C180
E380
A280
A280
9480
9480
9480
8880
8080
ENDCHAR
STARTCHAR uni1E41
ENCODING 7745
SWIDTH 934 0
DWIDTH 13 0
BBX 11 9 1 0
BITMAP
0400
0000
B9C0
C620
8420
8420
8420
8420
8420
ENDCHAR
STARTCHAR uni1E42
ENCODING 7746
SWIDTH 861 0
DWIDTH 12 0
BBX 9 12 2 -2
BITMAP
C180
C180
E380
A280
A280
9480
9480
9480
8880
8080
0000
0800
ENDCHAR
STARTCHAR uni1E43
ENCODING 7747
SWIDTH 934 0
DWIDTH 13 0
BBX 11 9 1 -2
BITMAP
B9C0
C620
8420
8420
8420
8420
8420
0000
0400
ENDCHAR
STARTCHAR uni1E44
ENCODING 7748
SWIDTH 741 0
DWIDTH 10 0
BBX 8 12 1 0
BITMAP
10
00
81
C1
A1
B1
91
89
8D
85
83
81
ENDCHAR
STARTCHAR uni1E45
ENCODING 7749
SWIDTH 620 0
DWIDTH 9 0
BBX 6 9 1 0
BITMAP
20
00
B8
C4
84
84
84
84
84
ENDCHAR
STARTCHAR uni1E46
ENCODING 7750
SWIDTH 741 0
DWIDTH 10 0
BBX 8 12 1 -2
BITMAP
81
C1
A1
B1
91
89
8D
85
83
81
00
08
ENDCHAR
STARTCHAR uni1E47
ENCODING 7751
SWIDTH 620 0
DWIDTH 9 0
BBX 6 9 1 -2
BITMAP
B8
C4
84
84
84
84
84
00
10
ENDCHAR
STARTCHAR uni1E48
ENCODING 7752
SWIDTH 741 0
DWIDTH 10 0
BBX 8 12 1 -2
BITMAP
81
C1
A1
B1
91
89
8D
85
83
81
00
3C
ENDCHAR
STARTCHAR uni1E49
ENCODING 7753
SWIDTH 620 0
DWIDTH 9 0
BBX 6 9 1 -2
BITMAP
B8
C4
84
84
84
84
84
00
78
ENDCHAR
STARTCHAR uni1E4A
ENCODING 7754
SWIDTH 741 0
DWIDTH 10 0
BBX 8 12 1 -2
BITMAP
81
C1
A1
B1
91
89
8D
85
83
81
00
3E
ENDCHAR
STARTCHAR uni1E4B
ENCODING 7755
SWIDTH 620 0
DWIDTH 9 0
BBX 6 9 1 -2
BITMAP
B8
C4
84
84
84
84
84
00
7C
ENDCHAR
STARTCHAR uni1E4C
ENCODING 7756
SWIDTH 777 0
DWIDTH 11 0
BBX 9 14 1 0
BITMAP
1C00
0000
3E00
0000
3E00
6300
4100
8080
8080
8080
8080
4100
6300
3E00
ENDCHAR
STARTCHAR uni1E4D
ENCODING 7757
SWIDTH 614 0
DWIDTH 9 0
BBX 7 11 1 0
BITMAP
38
00
7C
00
38
44
82
82
82
44
38
ENDCHAR
STARTCHAR uni1E4E
ENCODING 7758
SWIDTH 777 0
DWIDTH 11 0
BBX 9 14 1 0
BITMAP
1200
0000
3E00
0000
3E00
6300
4100
8080
8080
8080
8080
4100
6300
3E00
ENDCHAR
STARTCHAR uni1E4F
ENCODING 7759
SWIDTH 614 0
DWIDTH 9 0
BBX 7 11 1 0
BITMAP
24
00
7C
00
38
44
82
82
82
44
38
ENDCHAR
STARTCHAR uni1E50
ENCODING 7760
SWIDTH 777 0
DWIDTH 11 0
BBX 9 14 1 0
BITMAP
1C00
0000
1E00
0000
3E00
6300
4100
8080
8080
8080
8080
4100
6300
3E00
ENDCHAR
STARTCHAR uni1E51
ENCODING 7761
SWIDTH 614 0
DWIDTH 9 0
BBX 7 11 1 0
BITMAP
38
00
3C
00
38
44
82
82
82
44
38
ENDCHAR
STARTCHAR uni1E52
ENCODING 7762
SWIDTH 777 0
DWIDTH 11 0
BBX 9 14 1 0
BITMAP
1C00
0000
1E00
0000
3E00
6300
4100
8080
8080
8080
8080
4100
6300
3E00
ENDCHAR
STARTCHAR uni1E53
ENCODING 7763
SWIDTH 614 0
DWIDTH 9 0
BBX 7 11 1 0
BITMAP
38
00
3C
00
38
44
82
82
82
44
38
ENDCHAR
STARTCHAR uni1E54
ENCODING 7764
SWIDTH 553 0
DWIDTH 8 0
BBX 6 12 1 0
BITMAP
70
00
F8
84
84
84
88
F0
80
80
80
80
ENDCHAR
STARTCHAR uni1E55
ENCODING 7765
SWIDTH 630 0
DWIDTH 9 0
BBX 7 12 1 -3
BITMAP
38
00
BC
C6
82
82
82
C4
B8
80
80
80
ENDCHAR
STARTCHAR uni1E56
ENCODING 7766
SWIDTH 553 0
DWIDTH 8 0
BBX 6 12 1 0
BITMAP
20
00
F8
84
84
84
88
F0
80
80
80
80
ENDCHAR
STARTCHAR uni1E57
ENCODING 7767
SWIDTH 630 0
DWIDTH 9 0
BBX 7 12 1 -3
BITMAP
10
00
BC
C6
82
82
82
C4
B8
80
80
80
ENDCHAR
STARTCHAR uni1E58
ENCODING 7768
SWIDTH 633 0
DWIDTH 9 0
BBX 6 12 2 0
BITMAP
20
00
F8
84
84
84
88
F0
98
88
84
84
ENDCHAR
STARTCHAR uni1E59
ENCODING 7769
SWIDTH 409 0
DWIDTH 6 0
BBX 4 9 1 0
BITMAP
40
00
B0
C0
80
80
80
80
80
ENDCHAR
STARTCHAR uni1E5A
ENCODING 7770
SWIDTH 633 0
DWIDTH 9 0
BBX 6 12 2 -2
BITMAP
F8
84
84
84
88
F0
98
88
84
84
00
20
ENDCHAR
STARTCHAR uni1E5B
ENCODING 7771
SWIDTH 409 0
DWIDTH 6 0
BBX 4 9 1 -2
BITMAP
B0
C0
80
80
80
80
80
00
40
ENDCHAR
STARTCHAR uni1E5C
ENCODING 7772
SWIDTH 633 0
DWIDTH 9 0
BBX 6 14 2 -2
BITMAP
78
00
F8
84
84
84
88
F0
98
88
84
84
00
20
ENDCHAR
STARTCHAR uni1E5D
ENCODING 7773
SWIDTH 409 0
DWIDTH 6 0
BBX 4 11 1 -2
BITMAP
F0
00
B0
C0
80
80
80
80
80
00
40
ENDCHAR
STARTCHAR uni1E5E
ENCODING 7774
SWIDTH 633 0
DWIDTH 9 0
BBX 6 12 2 -2
BITMAP
F8
84
84
84
88
F0
98
88
84
84
00
78
ENDCHAR
STARTCHAR uni1E5F
ENCODING 7775
SWIDTH 409 0
DWIDTH 6 0
BBX 5 9 0 -2
BITMAP
58
60
40
40
40
40
40
00
F0
ENDCHAR
STARTCHAR uni1E60
ENCODING 7776
SWIDTH 539 0
DWIDTH 8 0
BBX 6 12 1 0
BITMAP
20
00
78
88
80
C0
60
18
04
04
8C
F8
ENDCHAR
STARTCHAR uni1E61
ENCODING 7777
SWIDTH 510 0
DWIDTH 7 0
BBX 5 9 1 0
BITMAP
20
00
70
80
C0
70
08
88
F0
ENDCHAR
STARTCHAR uni1E62
ENCODING 7778
SWIDTH 539 0
DWIDTH 8 0
BBX 6 12 1 -2
BITMAP
78
88
80
C0
60
18
04
04
8C
F8
00
10
ENDCHAR
STARTCHAR uni1E63
ENCODING 7779
SWIDTH 510 0
DWIDTH 7 0
BBX 5 9 1 -2
BITMAP
70
80
C0
70
08
88
F0
00
20
ENDCHAR
STARTCHAR uni1E64
ENCODING 7780
SWIDTH 539 0
DWIDTH 8 0
BBX 6 14 1 0
BITMAP
20
00
70
00
78
88
80
C0
60
18
04
04
8C
F8
ENDCHAR
STARTCHAR uni1E65
ENCODING 7781
SWIDTH 510 0
DWIDTH 7 0
BBX 5 11 1 0
BITMAP
20
00
70
00
70
80
C0
70
08
88
F0
ENDCHAR
STARTCHAR uni1E66
ENCODING 7782
SWIDTH 539 0
DWIDTH 8 0
BBX 6 14 1 0
BITMAP
10
00
7C
00
78
88
80
C0
60
18
04
04
8C
F8
ENDCHAR
STARTCHAR uni1E67
ENCODING 7783
SWIDTH 510 0
DWIDTH 7 0
BBX 5 11 1 0
BITMAP
20
00
F8
00
70
80
C0
70
08
88
F0
ENDCHAR
STARTCHAR uni1E68
ENCODING 7784
SWIDTH 539 0
DWIDTH 8 0
BBX 6 14 1 -2
BITMAP
20
00
78
88
80
C0
60
18
04
04
8C
F8
00
10
ENDCHAR
STARTCHAR uni1E69
ENCODING 7785
SWIDTH 510 0
DWIDTH 7 0
BBX 5 11 1 -2
BITMAP
40
00
70
80
C0
70
08
88
F0
00
20
ENDCHAR
STARTCHAR uni1E6A
ENCODING 7786
SWIDTH 633 0
DWIDTH 9 0
BBX 9 12 0 0
BITMAP
0800
0000
FF80
0800
0800
0800
0800
0800
0800
0800
0800
0800
ENDCHAR
STARTCHAR uni1E6B
ENCODING 7787
SWIDTH 374 0
DWIDTH 5 0
BBX 4 11 1 0
BITMAP
40
00
40
40
F0
40
40
40
40
40
30
ENDCHAR
STARTCHAR uni1E6C
ENCODING 7788
SWIDTH 633 0
DWIDTH 9 0
BBX 9 12 0 -2
BITMAP
FF80
0800
0800
0800
0800
0800
0800
0800
0800
0800
0000
0800
ENDCHAR
STARTCHAR uni1E6D
ENCODING 7789
SWIDTH 374 0
DWIDTH 5 0
BBX 4 11 1 -2
BITMAP
40
40
F0
40
40
40
40
40
30
00
20
ENDCHAR
STARTCHAR uni1E6E
ENCODING 7790
SWIDTH 633 0
DWIDTH 9 0
BBX 9 12 0 -2
BITMAP
FF80
0800
0800
0800
0800
0800
0800
0800
0800
0800
0000
1E00
ENDCHAR
STARTCHAR uni1E6F
ENCODING 7791
SWIDTH 374 0
DWIDTH 5 0
BBX 4 11 1 -2
BITMAP
40
40
F0
40
40
40
40
40
30
00
F0
ENDCHAR
STARTCHAR uni1E70
ENCODING 7792
SWIDTH 633 0
DWIDTH 9 0
BBX 9 12 0 -2
BITMAP
FF80
0800
0800
0800
0800
0800
0800
0800
0800
0800
0000
3E00
ENDCHAR
STARTCHAR uni1E71
ENCODING 7793
SWIDTH 374 0
DWIDTH 5 0
BBX 5 11 1 -2
BITMAP
40
40
F0
40
40
40
40
40
30
00
F8
ENDCHAR
STARTCHAR uni1E72
ENCODING 7794
SWIDTH 693 0
DWIDTH 10 0
BBX 7 12 1 -2
BITMAP
82
82
82
82
82
82
82
82
C6
7C
00
24
ENDCHAR
STARTCHAR uni1E73
ENCODING 7795
SWIDTH 620 0
DWIDTH 9 0
BBX 6 9 1 -2
BITMAP
84
84
84
84
84
8C
74
00
48
ENDCHAR
STARTCHAR uni1E74
ENCODING 7796
SWIDTH 693 0
DWIDTH 10 0
BBX 7 12 1 -2
BITMAP
82
82
82
82
82
82
82
82
C6
7C
00
7C
ENDCHAR
STARTCHAR uni1E75
ENCODING 7797
SWIDTH 620 0
DWIDTH 9 0
BBX 6 9 1 -2
BITMAP
84
84
84
84
84
8C
74
00
7C
ENDCHAR
STARTCHAR uni1E76
ENCODING 7798
SWIDTH 693 0
DWIDTH 10 0
BBX 7 12 1 -2
BITMAP
82
82
82
82
82
82
82
82
C6
7C
00
7C
ENDCHAR
STARTCHAR uni1E77
ENCODING 7799
SWIDTH 620 0
DWIDTH 9 0
BBX 6 9 1 -2
BITMAP
84
84
84
84
84
8C
74
00
7C
ENDCHAR
STARTCHAR uni1E78
ENCODING 7800
SWIDTH 693 0
DWIDTH 10 0
BBX 7 14 1 0
BITMAP
38
00
7C
00
82
82
82
82
82
82
82
82
C6
7C
ENDCHAR
STARTCHAR uni1E79
ENCODING 7801
SWIDTH 620 0
DWIDTH 9 0
BBX 6 11 1 0
BITMAP
38
00
7C
00
84
84
84
84
84
8C
74
ENDCHAR
STARTCHAR uni1E7A
ENCODING 7802
SWIDTH 693 0
DWIDTH 10 0
BBX 7 14 1 0
BITMAP
24
00
3C
00
82
82
82
82
82
82
82
82
C6
7C
ENDCHAR
STARTCHAR uni1E7B
ENCODING 7803
SWIDTH 620 0
DWIDTH 9 0
BBX 6 11 1 0
BITMAP
48
00
78
00
84
84
84
84
84
8C
74
ENDCHAR
STARTCHAR uni1E7C
ENCODING 7804
SWIDTH 654 0
DWIDTH 9 0
BBX 9 12 0 0
BITMAP
3E00
0000
8080
4100
4100
2100
2200
2200
1400
1400
1C00
0800
ENDCHAR
STARTCHAR uni1E7D
ENCODING 7805
SWIDTH 572 0
DWIDTH 7 0
BBX 7 9 0 0
BITMAP
7C
00
82
44
44
68
28
28
10
ENDCHAR
STARTCHAR uni1E7E
ENCODING 7806
SWIDTH 654 0
DWIDTH 9 0
BBX 9 12 0 -2
BITMAP
8080
4100
4100
2100
2200
2200
1400
1400
1C00
0800
0000
0800
ENDCHAR
STARTCHAR uni1E7F
ENCODING 7807
SWIDTH 572 0
DWIDTH 7 0
BBX 7 9 0 -2
BITMAP
82
44
44
68
28
28
10
00
10
ENDCHAR
STARTCHAR Wgrave
ENCODING 7808
SWIDTH 855 0
DWIDTH 12 0
BBX 12 12 0 0
BITMAP
0700
0000
8610
4630
4620
4620
4920
2940
2940
2940
3080
1080
ENDCHAR
STARTCHAR wgrave
ENCODING 7809
SWIDTH 840 0
DWIDTH 11 0
BBX 11 9 0 0
BITMAP
0E00
0000
8420
4A40
4A40
4A40
3280
3180
3180
ENDCHAR
STARTCHAR Wacute
ENCODING 7810
SWIDTH 855 0
DWIDTH 12 0
BBX 12 12 0 0
BITMAP
0700
0000
8610
4630
4620
4620
4920
2940
2940
2940
3080
1080
ENDCHAR
STARTCHAR wacute
ENCODING 7811
SWIDTH 840 0
DWIDTH 11 0
BBX 11 9 0 0
BITMAP
0E00
0000
8420
4A40
4A40
4A40
3280
3180
3180
ENDCHAR
STARTCHAR Wdieresis
ENCODING 7812
SWIDTH 855 0
DWIDTH 12 0
BBX 12 12 0 0
BITMAP
0900
0000
8610
4630
4620
4620
4920
2940
2940
2940
3080
1080
ENDCHAR
STARTCHAR wdieresis
ENCODING 7813
SWIDTH 840 0
DWIDTH 11 0
BBX 11 9 0 0
BITMAP
0900
0000
8420
4A40
4A40
4A40
3280
3180
3180
ENDCHAR
STARTCHAR uni1E86
ENCODING 7814
SWIDTH 855 0
DWIDTH 12 0
BBX 12 12 0 0
BITMAP
0200
0000
8610
4630
4620
4620
4920
2940
2940
2940
3080
1080
ENDCHAR
STARTCHAR uni1E87
ENCODING 7815
SWIDTH 840 0
DWIDTH 11 0
BBX 11 9 0 0
BITMAP
0400
0000
8420
4A40
4A40
4A40
3280
3180
3180
ENDCHAR
STARTCHAR uni1E88
ENCODING 7816
SWIDTH 855 0
DWIDTH 12 0
BBX 12 12 0 -2
BITMAP
8610
4630
4620
4620
4920
2940
2940
2940
3080
1080
0000
0400
ENDCHAR
STARTCHAR uni1E89
ENCODING 7817
SWIDTH 840 0
DWIDTH 11 0
BBX 11 9 0 -2
BITMAP
8420
4A40
4A40
4A40
3280
3180
3180
0000
0400
ENDCHAR
STARTCHAR uni1E8A
ENCODING 7818
SWIDTH 626 0
DWIDTH 9 0
BBX 8 12 0 0
BITMAP
10
00
C3
62
24
1C
18
18
3C
24
42
C3
ENDCHAR
STARTCHAR uni1E8B
ENCODING 7819
SWIDTH 613 0
DWIDTH 9 0
BBX 7 9 1 0
BITMAP
10
00
C6
6C
28
10
28
4C
C6
ENDCHAR
STARTCHAR uni1E8C
ENCODING 7820
SWIDTH 626 0
DWIDTH 9 0
BBX 8 12 0 0
BITMAP
24
00
C3
62
24
1C
18
18
3C
24
42
C3
ENDCHAR
STARTCHAR uni1E8D
ENCODING 7821
SWIDTH 613 0
DWIDTH 9 0
BBX 7 9 1 0
BITMAP
24
00
C6
6C
28
10
28
4C
C6
ENDCHAR
STARTCHAR uni1E8E
ENCODING 7822
SWIDTH 623 0
DWIDTH 9 0
BBX 8 12 0 0
BITMAP
08
00
C3
42
24
24
18
10
10
10
10
10
ENDCHAR
STARTCHAR uni1E8F
ENCODING 7823
SWIDTH 568 0
DWIDTH 7 0
BBX 7 12 0 -3
BITMAP
10
00
82
44
44
2C
28
28
10
10
30
20
ENDCHAR
STARTCHAR uni1E90
ENCODING 7824
SWIDTH 605 0
DWIDTH 8 0
BBX 7 12 1 0
BITMAP
7C
00
FE
04
04
08
10
10
20
40
40
FE
ENDCHAR
STARTCHAR uni1E91
ENCODING 7825
SWIDTH 573 0
DWIDTH 8 0
BBX 6 9 1 0
BITMAP
7C
00
FC
08
10
30
60
40
FC
ENDCHAR
STARTCHAR uni1E92
ENCODING 7826
SWIDTH 605 0
DWIDTH 8 0
BBX 7 12 1 -2
BITMAP
FE
04
04
08
10
10
20
40
40
FE
00
10
ENDCHAR
STARTCHAR uni1E93
ENCODING 7827
SWIDTH 573 0
DWIDTH 8 0
BBX 6 9 1 -2
BITMAP
FC
08
10
30
60
40
FC
00
20
ENDCHAR
STARTCHAR uni1E94
ENCODING 7828
SWIDTH 605 0
DWIDTH 8 0
BBX 7 12 1 -2
BITMAP
FE
04
04
08
10
10
20
40
40
FE
00
78
ENDCHAR
STARTCHAR uni1E95
ENCODING 7829
SWIDTH 573 0
DWIDTH 8 0
BBX 6 9 1 -2
BITMAP
FC
08
10
30
60
40
FC
00
78
ENDCHAR
STARTCHAR uni1E96
ENCODING 7830
SWIDTH 620 0
DWIDTH 9 0
BBX 6 12 1 -2
BITMAP
80
80
80
B8
C4
84
84
84
84
84
00
78
ENDCHAR
STARTCHAR uni1E97
ENCODING 7831
SWIDTH 374 0
DWIDTH 5 0
BBX 4 11 1 0
BITMAP
90
00
40
40
F0
40
40
40
40
40
30
ENDCHAR
STARTCHAR uni1E98
ENCODING 7832
SWIDTH 840 0
DWIDTH 11 0
BBX 11 11 0 0
BITMAP
0600
0900
0600
0000
8420
4A40
4A40
4A40
3280
3180
3180
ENDCHAR
STARTCHAR uni1E99
ENCODING 7833
SWIDTH 568 0
DWIDTH 7 0
BBX 7 14 0 -3
BITMAP
18
24
18
00
82
44
44
2C
28
28
10
10
30
20
ENDCHAR
STARTCHAR uni1EA0
ENCODING 7840
SWIDTH 690 0
DWIDTH 10 0
BBX 9 12 0 -2
BITMAP
0800
1400
1400
1400
2200
2200
7F00
4100
4100
8080
0000
0800
ENDCHAR
STARTCHAR uni1EA1
ENCODING 7841
SWIDTH 552 0
DWIDTH 8 0
BBX 7 9 1 -2
BITMAP
7C
44
04
7C
84
84
7E
00
10
ENDCHAR
STARTCHAR uni1EA4
ENCODING 7844
SWIDTH 690 0
DWIDTH 10 0
BBX 9 14 0 0
BITMAP
1C00
0000
3E00
0000
0800
1400
1400
1400
2200
2200
7F00
4100
4100
8080
ENDCHAR
STARTCHAR uni1EA5
ENCODING 7845
SWIDTH 552 0
DWIDTH 8 0
BBX 7 11 1 0
BITMAP
38
00
7C
00
7C
44
04
7C
84
84
7E
ENDCHAR
STARTCHAR uni1EA6
ENCODING 7846
SWIDTH 690 0
DWIDTH 10 0
BBX 9 14 0 0
BITMAP
1C00
0000
3E00
0000
0800
1400
1400
1400
2200
2200
7F00
4100
4100
8080
ENDCHAR
STARTCHAR uni1EA7
ENCODING 7847
SWIDTH 552 0
DWIDTH 8 0
BBX 7 11 1 0
BITMAP
38
00
7C
00
7C
44
04
7C
84
84
7E
ENDCHAR
STARTCHAR uni1EAA
ENCODING 7850
SWIDTH 690 0
DWIDTH 10 0
BBX 9 14 0 0
BITMAP
3E00
0000
3E00
0000
0800
1400
1400
1400
2200
2200
7F00
4100
4100
8080
ENDCHAR
STARTCHAR uni1EAB
ENCODING 7851
SWIDTH 552 0
DWIDTH 8 0
BBX 7 11 1 0
BITMAP
7C
00
7C
00
7C
44
04
7C
84
84
7E
ENDCHAR
STARTCHAR uni1EAC
ENCODING 7852
SWIDTH 690 0
DWIDTH 10 0
BBX 9 14 0 -2
BITMAP
3E00
0000
0800
1400
1400
1400
2200
2200
7F00
4100
4100
8080
0000
0800
ENDCHAR
STARTCHAR uni1EAD
ENCODING 7853
SWIDTH 552 0
DWIDTH 8 0
BBX 7 11 1 -2
BITMAP
7C
00
7C
44
04
7C
84
84
7E
00
10
ENDCHAR
STARTCHAR uni1EAE
ENCODING 7854
SWIDTH 690 0
DWIDTH 10 0
BBX 9 14 0 0
BITMAP
1C00
0000
3E00
0000
0800
1400
1400
1400
2200
2200
7F00
4100
4100
8080
ENDCHAR
STARTCHAR uni1EAF
ENCODING 7855
SWIDTH 552 0
DWIDTH 8 0
BBX 7 11 1 0
BITMAP
38
00
7C
00
7C
44
04
7C
84
84
7E
ENDCHAR
STARTCHAR uni1EB0
ENCODING 7856
SWIDTH 690 0
DWIDTH 10 0
BBX 9 14 0 0
BITMAP
1C00
0000
3E00
0000
0800
1400
1400
1400
2200
2200
7F00
4100
4100
8080
ENDCHAR
STARTCHAR uni1EB1
ENCODING 7857
SWIDTH 552 0
DWIDTH 8 0
BBX 7 11 1 0
BITMAP
38
00
7C
00
7C
44
04
7C
84
84
7E
ENDCHAR
STARTCHAR uni1EB4
ENCODING 7860
SWIDTH 690 0
DWIDTH 10 0
BBX 9 14 0 0
BITMAP
3E00
0000
3E00
0000
0800
1400
1400
1400
2200
2200
7F00
4100
4100
8080
ENDCHAR
STARTCHAR uni1EB5
ENCODING 7861
SWIDTH 552 0
DWIDTH 8 0
BBX 7 11 1 0
BITMAP
7C
00
7C
00
7C
44
04
7C
84
84
7E
ENDCHAR
STARTCHAR uni1EB6
ENCODING 7862
SWIDTH 690 0
DWIDTH 10 0
BBX 9 14 0 -2
BITMAP
3E00
0000
0800
1400
1400
1400
2200
2200
7F00
4100
4100
8080
0000
0800
ENDCHAR
STARTCHAR uni1EB7
ENCODING 7863
SWIDTH 552 0
DWIDTH 8 0
BBX 7 11 1 -2
BITMAP
7C
00
7C
44
04
7C
84
84
7E
00
10
ENDCHAR
STARTCHAR uni1EB8
ENCODING 7864
SWIDTH 542 0
DWIDTH 8 0
BBX 6 12 1 -2
BITMAP
FC
80
80
80
F8
80
80
80
80
FC
00
20
ENDCHAR
STARTCHAR uni1EB9
ENCODING 7865
SWIDTH 557 0
DWIDTH 8 0
BBX 6 9 1 -2
BITMAP
78
44
84
FC
80
40
3C
00
10
ENDCHAR
STARTCHAR uni1EBC
ENCODING 7868
SWIDTH 542 0
DWIDTH 8 0
BBX 6 12 1 0
BITMAP
F8
00
FC
80
80
80
F8
80
80
80
80
FC
ENDCHAR
STARTCHAR uni1EBD
ENCODING 7869
SWIDTH 557 0
DWIDTH 8 0
BBX 6 9 1 0
BITMAP
7C
00
78
44
84
FC
80
40
3C
ENDCHAR
STARTCHAR uni1EBE
ENCODING 7870
SWIDTH 542 0
DWIDTH 8 0
BBX 6 14 1 0
BITMAP
70
00
F8
00
FC
80
80
80
F8
80
80
80
80
FC
ENDCHAR
STARTCHAR uni1EBF
ENCODING 7871
SWIDTH 557 0
DWIDTH 8 0
BBX 6 11 1 0
BITMAP
38
00
7C
00
78
44
84
FC
80
40
3C
ENDCHAR
STARTCHAR uni1EC0
ENCODING 7872
SWIDTH 542 0
DWIDTH 8 0
BBX 6 14 1 0
BITMAP
70
00
F8
00
FC
80
80
80
F8
80
80
80
80
FC
ENDCHAR
STARTCHAR uni1EC1
ENCODING 7873
SWIDTH 557 0
DWIDTH 8 0
BBX 6 11 1 0
BITMAP
38
00
7C
00
78
44
84
FC
80
40
3C
ENDCHAR
STARTCHAR uni1EC4
ENCODING 7876
SWIDTH 542 0
DWIDTH 8 0
BBX 6 14 1 0
BITMAP
F8
00
F8
00
FC
80
80
80
F8
80
80
80
80
FC
ENDCHAR
STARTCHAR uni1EC5
ENCODING 7877
SWIDTH 557 0
DWIDTH 8 0
BBX 6 11 1 0
BITMAP
7C
00
7C
00
78
44
84
FC
80
40
3C
ENDCHAR
STARTCHAR uni1EC6
ENCODING 7878
SWIDTH 542 0
DWIDTH 8 0
BBX 6 14 1 -2
BITMAP
F8
00
FC
80
80
80
F8
80
80
80
80
FC
00
20
ENDCHAR
STARTCHAR uni1EC7
ENCODING 7879
SWIDTH 557 0
DWIDTH 8 0
BBX 6 11 1 -2
BITMAP
7C
00
78
44
84
FC
80
40
3C
00
10
ENDCHAR
STARTCHAR uni1ECA
ENCODING 7882
SWIDTH 288 0
DWIDTH 4 0
BBX 1 12 2 -2
BITMAP
80
80
80
80
80
80
80
80
80
80
00
80
ENDCHAR
STARTCHAR uni1ECB
ENCODING 7883
SWIDTH 289 0
DWIDTH 4 0
BBX 1 12 2 -2
BITMAP
80
00
00
80
80
80
80
80
80
80
00
80
ENDCHAR
STARTCHAR uni1ECC
ENCODING 7884
SWIDTH 777 0
DWIDTH 11 0
BBX 9 12 1 -2
BITMAP
3E00
6300
4100
8080
8080
8080
8080
4100
6300
3E00
0000
0800
ENDCHAR
STARTCHAR uni1ECD
ENCODING 7885
SWIDTH 614 0
DWIDTH 9 0
BBX 7 9 1 -2
BITMAP
38
44
82
82
82
44
38
00
10
ENDCHAR
STARTCHAR uni1ED0
ENCODING 7888
SWIDTH 777 0
DWIDTH 11 0
BBX 9 14 1 0
BITMAP
1C00
0000
3E00
0000
3E00
6300
4100
8080
8080
8080
8080
4100
6300
3E00
ENDCHAR
STARTCHAR uni1ED1
ENCODING 7889
SWIDTH 614 0
DWIDTH 9 0
BBX 7 11 1 0
BITMAP
38
00
7C
00
38
44
82
82
82
44
38
ENDCHAR
STARTCHAR uni1ED2
ENCODING 7890
SWIDTH 777 0
DWIDTH 11 0
BBX 9 14 1 0
BITMAP
1C00
0000
3E00
0000
3E00
6300
4100
8080
8080
8080
8080
4100
6300
3E00
ENDCHAR
STARTCHAR uni1ED3
ENCODING 7891
SWIDTH 614 0
DWIDTH 9 0
BBX 7 11 1 0
BITMAP
38
00
7C
00
38
44
82
82
82
44
38
ENDCHAR
STARTCHAR uni1ED6
ENCODING 7894
SWIDTH 777 0
DWIDTH 11 0
BBX 9 14 1 0
BITMAP
3E00
0000
3E00
0000
3E00
6300
4100
8080
8080
8080
8080
4100
6300
3E00
ENDCHAR
STARTCHAR uni1ED7
ENCODING 7895
SWIDTH 614 0
DWIDTH 9 0
BBX 7 11 1 0
BITMAP
7C
00
7C
00
38
44
82
82
82
44
38
ENDCHAR
STARTCHAR uni1ED8
ENCODING 7896
SWIDTH 777 0
DWIDTH 11 0
BBX 9 14 1 -2
BITMAP
3E00
0000
3E00
6300
4100
8080
8080
8080
8080
4100
6300
3E00
0000
0800
ENDCHAR
STARTCHAR uni1ED9
ENCODING 7897
SWIDTH 614 0
DWIDTH 9 0
BBX 7 11 1 -2
BITMAP
7C
00
38
44
82
82
82
44
38
00
10
ENDCHAR
STARTCHAR uni1EDA
ENCODING 7898
SWIDTH 777 0
DWIDTH 11 0
BBX 10 12 1 0
BITMAP
0E00
0000
3EC0
6340
41C0
8080
8080
8080
8080
4100
6300
3E00
ENDCHAR
STARTCHAR uni1EDB
ENCODING 7899
SWIDTH 614 0
DWIDTH 9 0
BBX 9 9 1 0
BITMAP
0E00
0000
3980
4480
8380
8200
8200
4400
3800
ENDCHAR
STARTCHAR uni1EDC
ENCODING 7900
SWIDTH 777 0
DWIDTH 11 0
BBX 10 12 1 0
BITMAP
0E00
0000
3EC0
6340
41C0
8080
8080
8080
8080
4100
6300
3E00
ENDCHAR
STARTCHAR uni1EDD
ENCODING 7901
SWIDTH 614 0
DWIDTH 9 0
BBX 9 9 1 0
BITMAP
0E00
0000
3980
4480
8380
8200
8200
4400
3800
ENDCHAR
STARTCHAR uni1EE0
ENCODING 7904
SWIDTH 777 0
DWIDTH 11 0
BBX 10 12 1 0
BITMAP
1F00
0000
3EC0
6340
41C0
8080
8080
8080
8080
4100
6300
3E00
ENDCHAR
STARTCHAR uni1EE1
ENCODING 7905
SWIDTH 614 0
DWIDTH 9 0
BBX 9 9 1 0
BITMAP
1F00
0000
3980
4480
8380
8200
8200
4400
3800
ENDCHAR
STARTCHAR uni1EE2
ENCODING 7906
SWIDTH 777 0
DWIDTH 11 0
BBX 10 12 1 -2
BITMAP
3EC0
6340
41C0
8080
8080
8080
8080
4100
6300
3E00
0000
0800
ENDCHAR
STARTCHAR uni1EE3
ENCODING 7907
SWIDTH 614 0
DWIDTH 9 0
BBX 9 9 1 -2
BITMAP
3980
4480
8380
8200
8200
4400
3800
0000
1000
ENDCHAR
STARTCHAR uni1EE4
ENCODING 7908
SWIDTH 693 0
DWIDTH 10 0
BBX 7 12 1 -2
BITMAP
82
82
82
82
82
82
82
82
C6
7C
00
10
ENDCHAR
STARTCHAR uni1EE5
ENCODING 7909
SWIDTH 620 0
DWIDTH 9 0
BBX 6 9 1 -2
BITMAP
84
84
84
84
84
8C
74
00
10
ENDCHAR
STARTCHAR uni1EE8
ENCODING 7912
SWIDTH 693 0
DWIDTH 10 0
BBX 9 12 1 0
BITMAP
0E00
0000
8380
8280
8380
8200
8200
8200
8200
8200
C600
7C00
ENDCHAR
STARTCHAR uni1EE9
ENCODING 7913
SWIDTH 620 0
DWIDTH 9 0
BBX 8 9 1 0
BITMAP
1C
00
87
85
87
84
84
8C
74
ENDCHAR
STARTCHAR uni1EEA
ENCODING 7914
SWIDTH 693 0
DWIDTH 10 0
BBX 9 12 1 0
BITMAP
0E00
0000
8380
8280
8380
8200
8200
8200
8200
8200
C600
7C00
ENDCHAR
STARTCHAR uni1EEB
ENCODING 7915
SWIDTH 620 0
DWIDTH 9 0
BBX 8 9 1 0
BITMAP
1C
00
87
85
87
84
84
8C
74
ENDCHAR
STARTCHAR uni1EEE
ENCODING 7918
SWIDTH 693 0
DWIDTH 10 0
BBX 9 12 1 0
BITMAP
1F00
0000
8380
8280
8380
8200
8200
8200
8200
8200
C600
7C00
ENDCHAR
STARTCHAR uni1EEF
ENCODING 7919
SWIDTH 620 0
DWIDTH 9 0
BBX 8 9 1 0
BITMAP
3E
00
87
85
87
84
84
8C
74
ENDCHAR
STARTCHAR uni1EF0
ENCODING 7920
SWIDTH 693 0
DWIDTH 10 0
BBX 9 12 1 -2
BITMAP
8380
8280
8380
8200
8200
8200
8200
8200
C600
7C00
0000
1000
ENDCHAR
STARTCHAR uni1EF1
ENCODING 7921
SWIDTH 620 0
DWIDTH 9 0
BBX 8 9 1 -2
BITMAP
87
85
87
84
84
8C
74
00
10
ENDCHAR
STARTCHAR Ygrave
ENCODING 7922
SWIDTH 623 0
DWIDTH 9 0
BBX 8 12 0 0
BITMAP
1C
00
C3
42
24
24
18
10
10
10
10
10
ENDCHAR
STARTCHAR ygrave
ENCODING 7923
SWIDTH 568 0
DWIDTH 7 0
BBX 7 12 0 -3
BITMAP
38
00
82
44
44
2C
28
28
10
10
30
20
ENDCHAR
STARTCHAR uni1EF4
ENCODING 7924
SWIDTH 623 0
DWIDTH 9 0
BBX 8 12 0 -2
BITMAP
C3
42
24
24
18
10
10
10
10
10
00
10
ENDCHAR
STARTCHAR uni1EF5
ENCODING 7925
SWIDTH 568 0
DWIDTH 7 0
BBX 7 12 0 -5
BITMAP
82
44
44
2C
28
28
10
10
30
20
00
10
ENDCHAR
STARTCHAR uni1EF8
ENCODING 7928
SWIDTH 623 0
DWIDTH 9 0
BBX 8 12 0 0
BITMAP
3E
00
C3
42
24
24
18
10
10
10
10
10
ENDCHAR
STARTCHAR uni1EF9
ENCODING 7929
SWIDTH 568 0
DWIDTH 7 0
BBX 7 12 0 -3
BITMAP
7C
00
82
44
44
2C
28
28
10
10
30
20
ENDCHAR
STARTCHAR uni2000
ENCODING 8192
SWIDTH 500 0
DWIDTH 7 0
BBX 1 1 0 0
BITMAP
00
ENDCHAR
STARTCHAR uni2001
ENCODING 8193
SWIDTH 1000 0
DWIDTH 14 0
BBX 1 1 0 0
BITMAP
00
ENDCHAR
STARTCHAR uni2002
ENCODING 8194
SWIDTH 500 0
DWIDTH 7 0
BBX 1 1 0 0
BITMAP
00
ENDCHAR
STARTCHAR uni2003
ENCODING 8195
SWIDTH 1000 0
DWIDTH 14 0
BBX 1 1 0 0
BITMAP
00
ENDCHAR
STARTCHAR uni2004
ENCODING 8196
SWIDTH 333 0
DWIDTH 5 0
BBX 1 1 0 0
BITMAP
00
ENDCHAR
STARTCHAR uni2005
ENCODING 8197
SWIDTH 250 0
DWIDTH 3 0
BBX 1 1 0 0
BITMAP
00
ENDCHAR
STARTCHAR uni2006
ENCODING 8198
SWIDTH 167 0
DWIDTH 2 0
BBX 1 1 0 0
BITMAP
00
ENDCHAR
STARTCHAR uni2007
ENCODING 8199
SWIDTH 633 0
DWIDTH 9 0
BBX 1 1 0 0
BITMAP
00
ENDCHAR
STARTCHAR uni2008
ENCODING 8200
SWIDTH 316 0
DWIDTH 4 0
BBX 1 1 0 0
BITMAP
00
ENDCHAR
STARTCHAR uni2009
ENCODING 8201
SWIDTH 200 0
DWIDTH 3 0
BBX 1 1 0 0
BITMAP
00
ENDCHAR
STARTCHAR uni200A
ENCODING 8202
SWIDTH 100 0
DWIDTH 1 0
BBX 1 1 0 0
BITMAP
00
ENDCHAR
STARTCHAR uni200B
ENCODING 8203
SWIDTH 0 0
DWIDTH 0 0
BBX 1 1 0 0
BITMAP
00
ENDCHAR
STARTCHAR uni2010
ENCODING 8208
SWIDTH 325 0
DWIDTH 5 0
BBX 3 1 1 4
BITMAP
E0
ENDCHAR
STARTCHAR uni2011
ENCODING 8209
SWIDTH 325 0
DWIDTH 5 0
BBX 3 1 1 4
BITMAP
E0
ENDCHAR
STARTCHAR figuredash
ENCODING 8210
SWIDTH 500 0
DWIDTH 7 0
BBX 6 1 1 3
BITMAP
FC
ENDCHAR
STARTCHAR endash
ENCODING 8211
SWIDTH 500 0
DWIDTH 7 0
BBX 6 1 1 3
BITMAP
FC
ENDCHAR
STARTCHAR emdash
ENCODING 8212
SWIDTH 1000 0
DWIDTH 14 0
BBX 13 1 1 3
BITMAP
FFF8
ENDCHAR
STARTCHAR afii00208
ENCODING 8213
SWIDTH 1000 0
DWIDTH 14 0
BBX 13 1 1 3
BITMAP
FFF8
ENDCHAR
STARTCHAR quoteleft
ENCODING 8216
SWIDTH 229 0
DWIDTH 3 0
BBX 2 3 1 7
BITMAP
C0
80
C0
ENDCHAR
STARTCHAR quoteright
ENCODING 8217
SWIDTH 229 0
DWIDTH 3 0
BBX 2 3 1 7
BITMAP
C0
40
C0
ENDCHAR
STARTCHAR quotesinglbase
ENCODING 8218
SWIDTH 229 0
DWIDTH 3 0
BBX 2 5 1 -3
BITMAP
C0
C0
40
40
80
ENDCHAR
STARTCHAR quotereversed
ENCODING 8219
SWIDTH 229 0
DWIDTH 3 0
BBX 2 3 1 7
BITMAP
C0
80
C0
ENDCHAR
STARTCHAR quotedblleft
ENCODING 8220
SWIDTH 373 0
DWIDTH 5 0
BBX 3 3 1 7
BITMAP
A0
A0
A0
ENDCHAR
STARTCHAR quotedblright
ENCODING 8221
SWIDTH 373 0
DWIDTH 5 0
BBX 3 3 1 7
BITMAP
A0
A0
A0
ENDCHAR
STARTCHAR quotedblbase
ENCODING 8222
SWIDTH 373 0
DWIDTH 5 0
BBX 3 4 1 -3
BITMAP
A0
A0
A0
A0
ENDCHAR
STARTCHAR uni201F
ENCODING 8223
SWIDTH 373 0
DWIDTH 5 0
BBX 3 3 1 7
BITMAP
A0
A0
A0
ENDCHAR
STARTCHAR dagger
ENCODING 8224
SWIDTH 633 0
DWIDTH 9 0
BBX 5 13 2 -3
BITMAP
20
20
20
20
F8
20
20
20
20
20
20
20
20
ENDCHAR
STARTCHAR daggerdbl
ENCODING 8225
SWIDTH 633 0
DWIDTH 9 0
BBX 5 13 2 -3
BITMAP
20
20
20
20
F8
20
20
20
F8
20
20
20
20
ENDCHAR
STARTCHAR bullet
ENCODING 8226
SWIDTH 633 0
DWIDTH 9 0
BBX 4 3 2 3
BITMAP
F0
F0
F0
ENDCHAR
STARTCHAR ellipsis
ENCODING 8230
SWIDTH 1000 0
DWIDTH 14 0
BBX 11 1 2 0
BITMAP
8420
ENDCHAR
STARTCHAR perthousand
ENCODING 8240
SWIDTH 1012 0
DWIDTH 14 0
BBX 14 10 0 0
BITMAP
6180
9100
9200
9400
6C00
1B18
14A4
24A4
44A4
C318
ENDCHAR
STARTCHAR guilsinglleft
ENCODING 8249
SWIDTH 331 0
DWIDTH 5 0
BBX 3 7 1 0
BITMAP
20
40
40
80
40
40
20
ENDCHAR
STARTCHAR guilsinglright
ENCODING 8250
SWIDTH 331 0
DWIDTH 5 0
BBX 3 7 1 0
BITMAP
80
40
40
20
40
40
80
ENDCHAR
STARTCHAR fraction
ENCODING 8260
SWIDTH 36 0
DWIDTH 1 0
BBX 9 10 -3 0
BITMAP
0180
0100
0200
0400
0C00
1800
1000
2000
4000
C000
ENDCHAR
STARTCHAR oneinferior
ENCODING 8321
SWIDTH 422 0
DWIDTH 5 0
BBX 2 6 -8 -3
BITMAP
C0
40
40
40
40
40
ENDCHAR
STARTCHAR twoinferior
ENCODING 8322
SWIDTH 422 0
DWIDTH 5 0
BBX 4 6 -8 -3
BITMAP
E0
10
10
60
C0
F0
ENDCHAR
STARTCHAR threeinferior
ENCODING 8323
SWIDTH 422 0
DWIDTH 5 0
BBX 4 6 -8 -3
BITMAP
E0
10
60
30
10
E0
ENDCHAR
STARTCHAR uni20A5
ENCODING 8357
SWIDTH 934 0
DWIDTH 13 0
BBX 11 13 1 -3
BITMAP
0080
0100
0100
BBC0
C620
8620
8420
8C20
8C20
8C20
1000
1000
2000
ENDCHAR
STARTCHAR uni20A6
ENCODING 8358
SWIDTH 741 0
DWIDTH 10 0
BBX 8 10 1 0
BITMAP
81
C1
A1
FF
91
89
FF
85
83
81
ENDCHAR
STARTCHAR uni20A9
ENCODING 8361
SWIDTH 855 0
DWIDTH 12 0
BBX 12 10 0 0
BITMAP
8610
4630
4620
7FE0
4920
2940
3FC0
2940
3080
1080
ENDCHAR
STARTCHAR Euro
ENCODING 8364
SWIDTH 692 0
DWIDTH 10 0
BBX 10 10 -1 0
BITMAP
07C0
1840
1000
FF00
2000
2000
FF00
1000
1840
0780
ENDCHAR
STARTCHAR uni20AD
ENCODING 8365
SWIDTH 653 0
DWIDTH 9 0
BBX 8 10 1 0
BITMAP
86
8C
98
B0
FF
E0
90
88
84
83
ENDCHAR
STARTCHAR uni2103
ENCODING 8451
SWIDTH 955 0
DWIDTH 14 0
BBX 11 10 2 0
BITMAP
E3E0
6C20
0800
1000
1000
1000
1000
0800
0C20
03C0
ENDCHAR
STARTCHAR uni2109
ENCODING 8457
SWIDTH 799 0
DWIDTH 12 0
BBX 9 10 2 0
BITMAP
EF80
6800
0800
0800
0F00
0800
0800
0800
0800
0800
ENDCHAR
STARTCHAR trademark
ENCODING 8482
SWIDTH 807 0
DWIDTH 11 0
BBX 11 5 0 5
BITMAP
FB60
2360
2360
22A0
22A0
ENDCHAR
STARTCHAR uni212A
ENCODING 8490
SWIDTH 653 0
DWIDTH 9 0
BBX 8 10 1 0
BITMAP
86
8C
98
B0
A0
E0
90
88
84
83
ENDCHAR
STARTCHAR uni212B
ENCODING 8491
SWIDTH 690 0
DWIDTH 10 0
BBX 9 13 0 0
BITMAP
0C00
1200
0C00
0800
1400
1400
1400
2200
2200
7F00
4100
4100
8080
ENDCHAR
STARTCHAR uni2132
ENCODING 8498
SWIDTH 536 0
DWIDTH 8 0
BBX 5 10 2 0
BITMAP
08
08
08
08
08
78
08
08
08
F8
ENDCHAR
STARTCHAR universal
ENCODING 8704
SWIDTH 690 0
DWIDTH 10 0
BBX 9 10 0 0
BITMAP
8080
4100
4100
7F00
2200
2200
1400
1400
1400
0800
ENDCHAR
STARTCHAR existential
ENCODING 8707
SWIDTH 542 0
DWIDTH 8 0
BBX 6 10 1 0
BITMAP
FC
04
04
04
7C
04
04
04
04
FC
ENDCHAR
STARTCHAR uni2204
ENCODING 8708
SWIDTH 542 0
DWIDTH 8 0
BBX 7 13 1 -1
BITMAP
02
04
FC
0C
0C
1C
7C
34
24
24
44
FC
80
ENDCHAR
STARTCHAR minus
ENCODING 8722
SWIDTH 633 0
DWIDTH 9 0
BBX 8 1 0 3
BITMAP
FF
ENDCHAR
STARTCHAR fraction
ENCODING 8725
SWIDTH 36 0
DWIDTH 1 0
BBX 9 10 -3 0
BITMAP
0180
0100
0200
0400
0C00
1800
1000
2000
4000
C000
ENDCHAR
STARTCHAR periodcentered
ENCODING 8729
SWIDTH 316 0
DWIDTH 9 0
BBX 2 1 3 4
BITMAP
C0
ENDCHAR
STARTCHAR uni2236
ENCODING 8758
SWIDTH 316 0
DWIDTH 4 0
BBX 1 7 2 0
BITMAP
80
00
00
00
00
00
80
ENDCHAR
STARTCHAR uni2259
ENCODING 8793
SWIDTH 633 0
DWIDTH 9 0
BBX 8 6 0 2
BITMAP
3E
00
FF
00
00
FF
ENDCHAR
STARTCHAR uni225A
ENCODING 8794
SWIDTH 633 0
DWIDTH 9 0
BBX 8 6 0 2
BITMAP
3E
00
FF
00
00
FF
ENDCHAR
STARTCHAR notequal
ENCODING 8800
SWIDTH 633 0
DWIDTH 9 0
BBX 8 13 0 -2
BITMAP
01
02
02
04
04
FF
08
18
FF
10
20
20
40
ENDCHAR
STARTCHAR equivalence
ENCODING 8801
SWIDTH 633 0
DWIDTH 9 0
BBX 8 5 0 1
BITMAP
FF
00
FF
00
FF
ENDCHAR
STARTCHAR uni2262
ENCODING 8802
SWIDTH 633 0
DWIDTH 9 0
BBX 8 13 0 -3
BITMAP
01
02
02
04
FF
0C
FF
18
FF
10
20
20
40
ENDCHAR
STARTCHAR lessequal
ENCODING 8804
SWIDTH 633 0
DWIDTH 9 0
BBX 8 10 0 -2
BITMAP
01
06
18
E0
60
18
06
01
00
FF
ENDCHAR
STARTCHAR greaterequal
ENCODING 8805
SWIDTH 633 0
DWIDTH 9 0
BBX 8 10 0 -2
BITMAP
80
60
18
06
07
18
60
80
00
FF
ENDCHAR
STARTCHAR uni226E
ENCODING 8814
SWIDTH 633 0
DWIDTH 9 0
BBX 8 13 0 -2
BITMAP
01
02
02
05
06
1C
E8
78
18
16
21
20
40
ENDCHAR
STARTCHAR uni226F
ENCODING 8815
SWIDTH 633 0
DWIDTH 9 0
BBX 8 13 0 -2
BITMAP
01
02
02
84
64
1C
0E
1F
18
70
A0
20
40
ENDCHAR
STARTCHAR uni2270
ENCODING 8816
SWIDTH 633 0
DWIDTH 9 0
BBX 8 13 0 -3
BITMAP
01
02
03
06
1C
EC
68
18
16
11
20
FF
40
ENDCHAR
STARTCHAR uni2271
ENCODING 8817
SWIDTH 633 0
DWIDTH 9 0
BBX 8 13 0 -3
BITMAP
01
02
82
64
1C
0E
0F
18
70
90
20
FF
40
ENDCHAR
STARTCHAR fi
ENCODING -1
SWIDTH 645 0
DWIDTH 9 0
BBX 7 11 1 0
BITMAP
38
42
40
40
FE
42
42
42
42
42
42
ENDCHAR
STARTCHAR fl
ENCODING -1
SWIDTH 645 0
DWIDTH 9 0
BBX 7 11 1 0
BITMAP
3E
42
42
42
FA
42
42
42
42
42
42
ENDCHAR
ENDFONT
